<?xml version="1.0" encoding="UTF-8" standalone="no"?><!DOCTYPE svg PUBLIC "-//W3C//DTD SVG 1.1//EN" "http://www.w3.org/Graphics/SVG/1.1/DTD/svg11.dtd"><svg width="100%" height="100%" viewBox="0 0 2084 2084" version="1.1" xmlns="http://www.w3.org/2000/svg" xmlns:xlink="http://www.w3.org/1999/xlink" xml:space="preserve" xmlns:serif="http://www.serif.com/" style="fill-rule:evenodd;clip-rule:evenodd;stroke-linejoin:round;stroke-miterlimit:2;"><g id="Background-Complete" serif:id="Background Complete"><path d="M385.986,1321.43l-0.591,-26.562c-0.188,-8.767 -0.467,-17.442 -0.546,-26.075l1.137,1.137c-20.762,0.213 -41.525,0.663 -62.283,0.684l-62.283,0.258l2.079,-2.079l-0.225,52.637l-1.854,-1.854c10.275,0.071 20.529,0.034 30.829,0.225l30.975,0.471l62.762,1.158Zm0,0l-61.804,1.163l-31.312,0.467c-10.459,0.195 -20.967,0.158 -31.45,0.229l-1.85,0.012l-0.009,-1.871l-0.225,-52.637l-0.008,-2.092l2.092,0.009l62.283,0.266c20.758,0.021 41.521,0.467 62.283,0.679l1.146,0.013l-0.008,1.125c-0.079,8.917 -0.359,17.783 -0.546,26.562l-0.592,26.075Z" style="fill:#ececec;fill-rule:nonzero;"/><path d="M316.498,1387.81l-0.592,-26.562c-0.187,-8.767 -0.466,-17.442 -0.546,-26.075l1.138,1.141c-20.763,0.209 -41.521,0.659 -62.283,0.679l-62.284,0.259l2.079,-2.079l-0.225,52.637l-1.854,-1.854c10.275,0.071 20.529,0.033 30.829,0.225l30.975,0.471l62.763,1.158Zm-0,0l-61.804,1.163l-31.313,0.471c-10.458,0.191 -20.966,0.154 -31.45,0.225l-1.85,0.012l-0.008,-1.871l-0.225,-52.637l-0.008,-2.088l2.091,0.009l62.284,0.262c20.762,0.021 41.52,0.467 62.283,0.683l1.146,0.013l-0.009,1.121c-0.079,8.916 -0.358,17.783 -0.545,26.566l-0.592,26.071Z" style="fill:#ececec;fill-rule:nonzero;"/><path d="M316.498,248.808l-0.592,-26.563c-0.187,-8.766 -0.466,-17.441 -0.546,-26.075l1.138,1.138c-20.763,0.212 -41.521,0.658 -62.283,0.679l-62.284,0.263l2.079,-2.08l-0.225,52.638l-1.854,-1.858c10.275,0.075 20.529,0.033 30.829,0.229l30.975,0.466l62.763,1.163Zm-0,-0l-61.804,1.162l-31.313,0.467c-10.458,0.196 -20.966,0.154 -31.45,0.229l-1.85,0.013l-0.008,-1.871l-0.225,-52.638l-0.008,-2.091l2.091,0.012l62.284,0.259c20.762,0.02 41.52,0.47 62.283,0.683l1.146,0.012l-0.009,1.125c-0.079,8.913 -0.358,17.784 -0.545,26.563l-0.592,26.075Z" style="fill:#ececec;fill-rule:nonzero;"/><path d="M1891.4,248.808l-0.592,-26.563c-0.187,-8.766 -0.466,-17.441 -0.541,-26.075l1.133,1.138c-20.758,0.212 -41.521,0.658 -62.279,0.679l-62.288,0.263l2.084,-2.08l-0.225,52.638l-1.859,-1.858c10.275,0.075 20.53,0.033 30.834,0.229l30.971,0.466l62.762,1.163Zm0,-0l-61.8,1.162l-31.317,0.467c-10.454,0.196 -20.966,0.154 -31.45,0.229l-1.85,0.013l-0.008,-1.871l-0.225,-52.638l-0.004,-2.091l2.087,0.012l62.288,0.259c20.758,0.02 41.521,0.47 62.279,0.683l1.146,0.012l-0.008,1.125c-0.075,8.913 -0.359,17.784 -0.542,26.563l-0.596,26.075Z" style="fill:#ececec;fill-rule:nonzero;"/><path d="M1821.92,315.183l-0.592,-26.562c-0.187,-8.767 -0.466,-17.446 -0.541,-26.075l1.133,1.137c-20.758,0.209 -41.525,0.659 -62.283,0.68l-62.284,0.262l2.079,-2.079l-0.22,52.637l-1.859,-1.858c10.275,0.075 20.529,0.033 30.829,0.229l30.975,0.467l62.763,1.162Zm-0,0l-61.804,1.159l-31.313,0.471c-10.458,0.191 -20.966,0.154 -31.45,0.225l-1.85,0.012l-0.008,-1.867l-0.225,-52.637l-0.008,-2.092l2.091,0.009l62.284,0.262c20.758,0.021 41.525,0.467 62.283,0.683l1.146,0.013l-0.013,1.125c-0.075,8.912 -0.354,17.779 -0.541,26.562l-0.592,26.075Z" style="fill:#ececec;fill-rule:nonzero;"/><path d="M1502.88,930.99l-0.592,-26.563c-0.187,-8.767 -0.466,-17.446 -0.542,-26.075l1.134,1.138c-20.759,0.212 -41.521,0.658 -62.284,0.679l-62.283,0.262l2.083,-2.079l-0.225,52.638l-1.858,-1.859c10.275,0.075 20.529,0.034 30.833,0.229l30.971,0.467l62.763,1.163Zm-0,-0l-61.8,1.162l-31.317,0.467c-10.454,0.191 -20.967,0.154 -31.45,0.229l-1.85,0.012l-0.008,-1.87l-0.225,-52.638l-0.004,-2.092l2.087,0.009l62.283,0.262c20.763,0.021 41.525,0.467 62.284,0.684l1.146,0.012l-0.009,1.125c-0.079,8.913 -0.358,17.783 -0.541,26.563l-0.596,26.075Z" style="fill:#ececec;fill-rule:nonzero;"/><path d="M1433.39,997.363l-0.596,-26.562c-0.183,-8.767 -0.462,-17.442 -0.541,-26.075l1.137,1.137c-20.762,0.213 -41.525,0.659 -62.283,0.684l-62.283,0.258l2.079,-2.079l-0.225,52.637l-1.854,-1.858c10.274,0.075 20.524,0.037 30.829,0.229l30.975,0.467l62.762,1.162Zm0,0l-61.804,1.163l-31.312,0.466c-10.459,0.196 -20.967,0.155 -31.45,0.23l-1.85,0.012l-0.009,-1.871l-0.225,-52.637l-0.008,-2.092l2.092,0.013l62.283,0.258c20.758,0.025 41.521,0.471 62.283,0.683l1.146,0.013l-0.012,1.125c-0.075,8.912 -0.355,17.783 -0.542,26.562l-0.592,26.075Z" style="fill:#ececec;fill-rule:nonzero;"/><path d="M1364.18,930.99l-0.595,-26.563c-0.184,-8.767 -0.467,-17.446 -0.542,-26.075l1.137,1.138c-20.762,0.212 -41.525,0.658 -62.283,0.679l-62.283,0.262l2.079,-2.079l-0.225,52.638l-1.854,-1.859c10.271,0.075 20.525,0.034 30.829,0.229l30.975,0.467l62.762,1.163Zm0,-0l-61.804,1.162l-31.312,0.467c-10.459,0.191 -20.971,0.154 -31.45,0.229l-1.854,0.012l-0.009,-1.87l-0.221,-52.638l-0.008,-2.092l2.092,0.009l62.283,0.262c20.758,0.021 41.521,0.467 62.283,0.684l1.146,0.012l-0.012,1.125c-0.075,8.913 -0.354,17.783 -0.542,26.563l-0.592,26.075Z" style="fill:#ececec;fill-rule:nonzero;"/><path d="M1891.4,1387.81l-0.592,-26.562c-0.187,-8.767 -0.466,-17.442 -0.541,-26.075l1.133,1.141c-20.758,0.209 -41.521,0.659 -62.283,0.679l-62.284,0.259l2.084,-2.079l-0.225,52.637l-1.859,-1.854c10.275,0.071 20.53,0.033 30.834,0.225l30.971,0.471l62.762,1.158Zm0,0l-61.8,1.163l-31.317,0.471c-10.454,0.191 -20.966,0.154 -31.45,0.225l-1.85,0.012l-0.008,-1.871l-0.225,-52.637l-0.004,-2.088l2.087,0.009l62.284,0.262c20.762,0.021 41.525,0.467 62.283,0.683l1.146,0.013l-0.008,1.121c-0.075,8.916 -0.359,17.783 -0.542,26.566l-0.596,26.071Z" style="fill:#ececec;fill-rule:nonzero;"/><path d="M833.024,405.339l-0.591,-26.563c-0.188,-8.766 -0.467,-17.446 -0.542,-26.075l1.133,1.138c-20.758,0.212 -41.521,0.658 -62.283,0.679l-62.283,0.262l2.079,-2.079l-0.225,52.638l-1.854,-1.859c10.275,0.075 20.529,0.034 30.829,0.23l30.975,0.466l62.762,1.163Zm0,-0l-61.804,1.162l-31.312,0.467c-10.459,0.196 -20.967,0.154 -31.45,0.229l-1.85,0.013l-0.009,-1.871l-0.225,-52.638l-0.008,-2.091l2.092,0.008l62.283,0.262c20.762,0.021 41.525,0.471 62.283,0.684l1.146,0.012l-0.008,1.125c-0.079,8.913 -0.359,17.784 -0.546,26.563l-0.592,26.075Z" style="fill:#ececec;fill-rule:nonzero;"/><path d="M1724.06,724.68c-18.546,9.95 -41.634,2.98 -51.579,-15.57c-9.95,-18.55 -3.005,-41.667 15.554,-51.617c18.55,-9.946 41.679,-2.963 51.629,15.587c9.95,18.55 2.95,41.65 -15.604,51.6m39.383,29.367l24.529,-39.542l-12.108,-7.504c-3.567,-2.204 -5.496,-6.233 -5.138,-10.408c0.196,-2.304 0.275,-4.629 0.221,-6.958c-0.096,-4.175 2.092,-8.063 5.775,-10.038l12.55,-6.733l-22,-41.021l-12.554,6.729c-3.679,1.975 -8.129,1.642 -11.554,-0.746c-1.913,-1.329 -3.888,-2.554 -5.917,-3.662c-3.679,-2.013 -5.966,-5.85 -5.829,-10.038l0.45,-14.237l-46.512,-1.446l-0.434,14.292c-0.125,4.191 -2.691,7.837 -6.483,9.625c-1.029,0.483 -2.046,1 -3.063,1.541c-1.008,0.542 -2,1.109 -2.97,1.696c-3.575,2.158 -8.009,2.283 -11.559,0.088l-12.2,-7.559l-24.525,39.546l12.134,7.529c3.558,2.213 5.483,6.242 5.12,10.417c-0.2,2.3 -0.274,4.608 -0.225,6.929c0.088,4.175 -2.095,8.058 -5.775,10.029l-12.558,6.734l22,41.025l12.558,-6.734c3.68,-1.975 8.121,-1.646 11.55,0.738c1.905,1.321 3.871,2.537 5.9,3.641c3.675,2.009 5.967,5.846 5.838,10.034l-0.442,14.275l46.517,1.441l0.442,-14.275c0.129,-4.179 2.691,-7.812 6.47,-9.595c1.034,-0.488 2.059,-1.009 3.08,-1.555c1.012,-0.541 2.004,-1.108 2.979,-1.695c3.587,-2.167 8.046,-2.292 11.612,-0.08l12.121,7.517Z" style="fill:#ececec;fill-rule:nonzero;"/><path d="M383.659,1172.76c-18.55,9.95 -41.634,2.983 -51.579,-15.567c-9.95,-18.55 -3.005,-41.666 15.55,-51.616c18.55,-9.95 41.683,-2.967 51.633,15.583c9.946,18.55 2.946,41.65 -15.604,51.6m39.383,29.367l24.529,-39.542l-12.112,-7.504c-3.563,-2.204 -5.492,-6.234 -5.134,-10.409c0.196,-2.308 0.271,-4.629 0.217,-6.954c-0.092,-4.179 2.092,-8.071 5.775,-10.041l12.554,-6.734l-22,-41.021l-12.554,6.73c-3.679,1.979 -8.129,1.645 -11.558,-0.746c-1.909,-1.329 -3.884,-2.55 -5.917,-3.663c-3.675,-2.012 -5.962,-5.85 -5.829,-10.037l0.454,-14.242l-46.517,-1.442l-0.429,14.288c-0.125,4.192 -2.696,7.842 -6.483,9.633c-1.029,0.484 -2.05,0.996 -3.063,1.542c-1.008,0.542 -2.004,1.104 -2.975,1.692c-3.57,2.158 -8.008,2.283 -11.554,0.087l-12.2,-7.558l-24.529,39.546l12.133,7.529c3.563,2.208 5.488,6.241 5.125,10.416c-0.2,2.3 -0.275,4.609 -0.225,6.93c0.084,4.175 -2.095,8.058 -5.775,10.029l-12.558,6.737l22,41.017l12.558,-6.729c3.675,-1.975 8.121,-1.646 11.55,0.737c1.905,1.321 3.871,2.538 5.896,3.646c3.679,2.004 5.971,5.842 5.842,10.029l-0.442,14.275l46.513,1.442l0.446,-14.275c0.129,-4.179 2.691,-7.808 6.466,-9.596c1.034,-0.487 2.063,-1.004 3.084,-1.554c1.012,-0.542 2.004,-1.108 2.979,-1.696c3.587,-2.171 8.046,-2.292 11.608,-0.083l12.125,7.521Z" style="fill:#ececec;fill-rule:nonzero;"/><path d="M868.282,459.332c0,14.75 -11.946,26.692 -26.692,26.692c-14.745,-0 -26.716,-11.942 -26.716,-26.692c-0,-14.746 11.971,-26.717 26.716,-26.717c14.746,0 26.692,11.971 26.692,26.717m31.167,-14.587l-16.292,-28.238l-8.637,4.992c-2.542,1.466 -5.671,1.329 -8.13,-0.275c-1.358,-0.888 -2.766,-1.7 -4.22,-2.438c-2.609,-1.329 -4.288,-3.962 -4.288,-6.891l0,-9.98l-32.608,0l-0,9.98c-0,2.929 -1.679,5.562 -4.288,6.891c-1.454,0.738 -2.866,1.55 -4.225,2.438c-2.458,1.604 -5.583,1.741 -8.121,0.275l-8.645,-4.992l-16.292,28.238l8.683,4.995c2.542,1.467 3.942,4.259 3.792,7.192c-0.038,0.796 -0.058,1.596 -0.058,2.4c-0,0.804 0.02,1.604 0.058,2.4c0.15,2.921 -1.242,5.7 -3.771,7.163l-8.704,5.025l16.292,28.237l8.666,-4.996c2.542,-1.466 5.671,-1.321 8.129,0.284c1.35,0.887 2.755,1.7 4.2,2.437c2.605,1.329 4.284,3.963 4.284,6.883l-0,9.984l32.608,-0l0,-9.984c0,-2.92 1.675,-5.554 4.279,-6.883c1.45,-0.737 2.85,-1.55 4.204,-2.437c2.459,-1.605 5.584,-1.75 8.13,-0.284l8.662,4.996l16.292,-28.237l-8.667,-5c-2.533,-1.463 -3.929,-4.246 -3.779,-7.167c0.037,-0.8 0.058,-1.608 0.058,-2.421c0,-0.804 -0.021,-1.604 -0.058,-2.4c-0.15,-2.933 1.246,-5.729 3.792,-7.196l8.654,-4.991Z" style="fill:#ececec;fill-rule:nonzero;"/></g><g id="Plant"><path d="M370.148,1266c-54.451,53.308 -63.592,135.783 -52.117,208.021c0.296,1.637 2.833,1.192 2.833,-0.35c0,-16.442 -0.5,-32.742 -0.45,-48.988c0.3,-0.745 0.546,-1.441 0.846,-2.183c14.208,-10.337 27.275,-22.012 35.375,-38.012c9.087,-17.88 12.667,-38.05 19.621,-56.734c0.65,-1.787 -1.259,-1.262 -2.509,-0.341c-33.12,24.429 -43.679,50.716 -53.183,85.845c0.446,-18.233 1.838,-36.466 5.763,-54.7c7.154,-33.337 21.316,-66.379 45.262,-91.116c0.896,-0.946 -0.496,-2.388 -1.442,-1.442" style="fill:#1a2e35;fill-rule:nonzero;"/><path d="M380.381,1272.21c9.367,0.317 15.242,15.292 22.542,19.658c3.858,2.325 7.621,2.184 10.337,-1.625c7.234,-10.1 -2.691,-22.554 -12.025,-29.521c6.675,2.742 12.213,7.571 19.409,8.938c4.354,0.796 7.741,-0.821 8.762,-5.25c3.171,-13.767 -14.096,-19.892 -25.941,-20.179c5.741,-3.992 22.204,-14.846 13.458,-20.184c-8.863,-5.358 -28.179,10.163 -34.479,15.271c-9.259,7.513 -20.3,18.742 -20.721,30.496c-0.542,13.717 11.45,5.271 18.658,2.396" style="fill:#ffc800;fill-rule:nonzero;"/><g opacity="0.1"><path d="M380.381,1272.21c9.367,0.317 15.242,15.292 22.542,19.658c3.858,2.325 7.621,2.184 10.337,-1.625c7.234,-10.1 -2.691,-22.554 -12.025,-29.521c6.675,2.742 12.213,7.571 19.409,8.938c4.354,0.796 7.741,-0.821 8.762,-5.25c3.171,-13.767 -14.096,-19.892 -25.941,-20.179c5.741,-3.992 22.204,-14.846 13.458,-20.184c-8.863,-5.358 -28.179,10.163 -34.479,15.271c-9.259,7.513 -20.3,18.742 -20.721,30.496c-0.542,13.717 11.45,5.271 18.658,2.396" style="fill-rule:nonzero;"/></g><path d="M377.669,1274.52c11.979,-5.446 34.984,2.391 36.942,-2.142c3.967,-9.229 -14.421,-15.554 -24.346,-16.779c9.142,-2.479 26.654,-6.425 26.117,-15.238c-0.659,-10.762 -26.863,-1.508 -40.125,8.663c-16.709,12.812 -16.6,25.175 -13.838,27.65c3.792,3.396 13.275,-1.254 15.25,-2.154" style="fill:#ffc800;fill-rule:nonzero;"/><path d="M246.138,1260.72c56.438,51.2 68.713,133.262 59.988,205.887c-0.233,1.65 -2.783,1.3 -2.842,-0.241c-0.625,-16.434 -0.746,-32.734 -1.416,-48.967c-0.325,-0.733 -0.6,-1.417 -0.925,-2.154c-14.592,-9.788 -28.092,-20.954 -36.796,-36.634c-9.763,-17.525 -14.104,-37.545 -21.767,-55.95c-0.712,-1.762 1.213,-1.308 2.496,-0.433c34.025,23.146 45.575,49.017 56.408,83.754c-1.141,-18.2 -3.225,-36.366 -7.837,-54.437c-8.417,-33.042 -23.825,-65.517 -48.696,-89.334c-0.929,-0.904 0.408,-2.4 1.387,-1.491" style="fill:#1a2e35;fill-rule:nonzero;"/><path d="M236.149,1267.32c-9.35,0.67 -14.65,15.858 -21.779,20.5c-3.767,2.47 -7.533,2.47 -10.392,-1.229c-7.612,-9.813 1.834,-22.642 10.896,-29.955c-6.566,2.992 -11.916,8.021 -19.054,9.663c-4.325,0.962 -7.771,-0.521 -8.958,-4.913c-3.692,-13.633 13.329,-20.408 25.154,-21.15c-5.888,-3.77 -22.75,-13.987 -14.217,-19.658c8.654,-5.688 28.546,9.083 35.038,13.954c9.537,7.154 21,17.95 21.862,29.679c1.067,13.688 -11.237,5.709 -18.55,3.109" style="fill:#ffc800;fill-rule:nonzero;"/><g opacity="0.1"><path d="M236.149,1267.32c-9.35,0.67 -14.65,15.858 -21.779,20.5c-3.767,2.47 -7.533,2.47 -10.392,-1.229c-7.612,-9.813 1.834,-22.642 10.896,-29.955c-6.566,2.992 -11.916,8.021 -19.054,9.663c-4.325,0.962 -7.771,-0.521 -8.958,-4.913c-3.692,-13.633 13.329,-20.408 25.154,-21.15c-5.888,-3.77 -22.75,-13.987 -14.217,-19.658c8.654,-5.688 28.546,9.083 35.038,13.954c9.537,7.154 21,17.95 21.862,29.679c1.067,13.688 -11.237,5.709 -18.55,3.109" style="fill-rule:nonzero;"/></g><path d="M238.945,1269.53c-12.175,-4.983 -34.871,3.721 -36.996,-0.737c-4.317,-9.071 13.816,-16.092 23.687,-17.696c-9.229,-2.125 -26.879,-5.4 -26.675,-14.229c0.246,-10.784 26.788,-2.525 40.425,7.129c17.184,12.171 17.546,24.525 14.879,27.104c-3.658,3.542 -13.312,-0.75 -15.32,-1.571" style="fill:#ffc800;fill-rule:nonzero;"/><path d="M303.853,1395.94c4.167,26.984 9.334,54.88 17.525,80.955c0.784,2.375 4.309,1.766 3.946,-0.8c-3.708,-24.946 -10.466,-49.434 -14.175,-74.38c-3.767,-25.241 -5.779,-50.829 -4.333,-76.362c2.375,-42.038 13.792,-86.758 41.221,-119.65c0.604,-0.779 -0.675,-1.879 -1.296,-1.158c-54.921,64.037 -46.183,142.545 -46.133,149.583c-7.775,-26.508 -15.784,-56.896 -45.196,-83.892c-1.267,-1.162 -2.259,-0.608 -2.046,1.367c5.258,49.171 18.929,74.846 47.437,101.133c0.809,7.792 1.813,15.546 3.05,23.204" style="fill:#1a2e35;fill-rule:nonzero;"/><path d="M348.535,1213.07c9.879,-4.392 23.508,8.191 33.283,9.05c5.175,0.466 9.005,-1.575 9.904,-6.888c2.425,-14.121 -14.141,-22.05 -27.333,-24.583c8.309,-0.513 16.479,1.704 24.634,-0.496c4.925,-1.367 7.625,-4.75 6.45,-9.854c-3.638,-15.883 -24.634,-13.546 -37.071,-7.883c3.945,-7.03 15.562,-26.58 3.804,-27.713c-11.892,-1.1 -24.121,24.721 -28.088,33.2c-5.825,12.458 -11.629,29.667 -6.15,42.063c6.342,14.508 14.534,-0.284 20.567,-6.896" style="fill:#ffc800;fill-rule:nonzero;"/><g opacity="0.1"><path d="M348.535,1213.07c9.879,-4.392 23.508,8.191 33.283,9.05c5.175,0.466 9.005,-1.575 9.904,-6.888c2.425,-14.121 -14.141,-22.05 -27.333,-24.583c8.309,-0.513 16.479,1.704 24.634,-0.496c4.925,-1.367 7.625,-4.75 6.45,-9.854c-3.638,-15.883 -24.634,-13.546 -37.071,-7.883c3.945,-7.03 15.562,-26.58 3.804,-27.713c-11.892,-1.1 -24.121,24.721 -28.088,33.2c-5.825,12.458 -11.629,29.667 -6.15,42.063c6.342,14.508 14.534,-0.284 20.567,-6.896" style="fill-rule:nonzero;"/></g><path d="M346.885,1216.83c9.688,-11.679 37.504,-15.129 37.25,-20.816c-0.529,-11.567 -22.792,-8.884 -33.704,-5.159c8.237,-7.17 24.421,-20.079 19.425,-28.954c-6.1,-10.837 -28.629,11.958 -37.271,29.183c-10.887,21.709 -4.55,34.48 -0.438,35.659c5.642,1.616 13.138,-7.984 14.738,-9.913" style="fill:#ffc800;fill-rule:nonzero;"/><path d="M267.72,1410.74l-24.22,185.067l147.391,-0c-3.037,-16.4 -30.471,-185.28 -30.471,-185.28l-92.7,0.213Z" style="fill:#ffc800;fill-rule:nonzero;"/></g><g id="Floor"><path d="M611.198,1595.05l-215.238,0.366l-215.237,1.017l215.237,1.012l215.238,0.363l430.47,0.704l430.475,-0.7l215.229,-0.362l215.234,-1.017l-215.234,-1.025l-215.229,-0.367l-430.475,-0.687l-430.471,0.696Z" style="fill:#1a2e35;fill-rule:nonzero;"/></g><g id="Shadow"><path d="M1662.74,1871c-0,48.5 -278.063,87.813 -621.071,87.813c-343.004,-0 -621.067,-39.313 -621.067,-87.813c0,-48.5 278.063,-87.812 621.067,-87.812c343.008,-0 621.071,39.312 621.071,87.812" style="fill:#ececec;fill-rule:nonzero;"/></g><g id="_404-Error" serif:id="404 Error"><path d="M516.561,761.943l101.046,-25.68l-33.421,-131.512l-67.625,157.192Zm139.996,186.691l-25.871,-101.792l-204.325,51.93l-27.004,-106.25l163.287,-372.134l80.984,-20.583l78.745,309.833l65.384,-16.62l27.191,106.995l-65.383,16.617l25.871,101.792l-118.879,30.212Z" style="fill:#1a2e35;fill-rule:nonzero;"/><path d="M1118.33,608.826c-0,-35.767 -7.163,-64.779 -21.467,-87.013c-14.317,-22.229 -32.708,-33.345 -55.196,-33.345c-23.512,-0 -42.296,11.116 -56.346,33.345c-14.062,22.234 -21.079,51.246 -21.079,87.013c0,35.779 7.017,64.662 21.079,86.629c14.05,21.979 32.834,32.963 56.346,32.963c22.488,-0 40.879,-10.984 55.196,-32.963c14.304,-21.967 21.467,-50.85 21.467,-86.629m123.429,-0c-0,33.733 -5.117,64.779 -15.334,93.142c-10.229,28.366 -24.283,52.899 -42.17,73.6c-17.896,20.695 -38.971,36.795 -63.238,48.295c-24.287,11.5 -50.733,17.25 -79.35,17.25c-28.629,0 -55.196,-5.75 -79.729,-17.25c-24.529,-11.5 -45.746,-27.6 -63.629,-48.295c-17.896,-20.701 -31.813,-45.234 -41.779,-73.601c-9.967,-28.362 -14.95,-59.408 -14.95,-93.141c-0,-33.729 4.983,-64.779 14.95,-93.142c9.966,-28.367 23.883,-52.9 41.779,-73.6c17.883,-20.696 39.1,-36.912 63.629,-48.679c24.533,-11.75 51.1,-17.633 79.729,-17.633c28.617,-0 55.063,5.883 79.35,17.633c24.267,11.767 45.342,27.983 63.238,48.679c17.887,20.7 31.941,45.233 42.17,73.6c10.217,28.363 15.334,59.413 15.334,93.142" style="fill:#1a2e35;fill-rule:nonzero;"/><path d="M1407.76,702.024l102.916,16.675l21.7,-133.946l-124.616,117.271Zm54.087,226.996l16.796,-103.679l-208.108,-33.713l17.533,-108.216l297.95,-276.354l82.483,13.362l-51.121,315.563l66.596,10.791l-17.654,108.975l-66.6,-10.792l-16.796,103.68l-121.079,-19.617Z" style="fill:#1a2e35;fill-rule:nonzero;"/><path d="M834.806,241.325c0,5.163 0.784,10.158 2.354,14.979c1.571,4.825 3.846,9.092 6.821,12.796c2.971,3.7 6.621,6.675 10.942,8.921c4.317,2.246 9.225,3.362 14.725,3.362c5.608,0 10.575,-1.15 14.896,-3.45c4.321,-2.296 7.966,-5.358 10.941,-9.175c2.971,-3.812 5.217,-8.104 6.734,-12.87c1.512,-4.771 2.271,-9.621 2.271,-14.563c-0,-5.158 -0.817,-10.154 -2.442,-14.979c-1.625,-4.825 -3.929,-9.088 -6.9,-12.796c-2.975,-3.7 -6.621,-6.646 -10.942,-8.833c-4.321,-2.188 -9.171,-3.284 -14.558,-3.284c-5.613,0 -10.604,1.155 -14.979,3.45c-4.379,2.305 -8.025,5.334 -10.942,9.092c-2.921,3.758 -5.133,8.021 -6.65,12.792c-1.512,4.77 -2.271,9.62 -2.271,14.558m34.675,60.596c-8.754,-0 -16.696,-1.713 -23.821,-5.133c-7.125,-3.421 -13.237,-7.967 -18.341,-13.634c-5.109,-5.666 -9.067,-12.146 -11.871,-19.442c-2.804,-7.291 -4.204,-14.754 -4.204,-22.387c-0,-7.967 1.483,-15.596 4.458,-22.892c2.971,-7.291 7.071,-13.741 12.288,-19.354c5.216,-5.612 11.416,-10.071 18.6,-13.383c7.179,-3.309 14.979,-4.963 23.395,-4.963c8.642,0 16.521,1.763 23.65,5.3c7.125,3.534 13.213,8.163 18.259,13.884c5.05,5.725 8.979,12.233 11.787,19.529c2.8,7.296 4.204,14.7 4.204,22.216c0,7.971 -1.458,15.567 -4.375,22.809c-2.92,7.237 -6.958,13.633 -12.12,19.187c-5.159,5.554 -11.334,9.988 -18.513,13.296c-7.183,3.313 -14.983,4.967 -23.396,4.967" style="fill:#1a2e35;fill-rule:nonzero;"/><path d="M961.212,257.147c0,3.929 0.592,7.492 1.767,10.688c1.179,3.2 2.804,5.975 4.883,8.333c2.075,2.354 4.517,4.179 7.321,5.467c2.804,1.291 5.833,1.937 9.092,1.937c3.25,0 6.279,-0.646 9.087,-1.937c2.804,-1.288 5.246,-3.113 7.321,-5.467c2.075,-2.358 3.704,-5.163 4.883,-8.417c1.175,-3.254 1.767,-6.841 1.767,-10.775c-0,-3.812 -0.592,-7.346 -1.767,-10.6c-1.179,-3.254 -2.808,-6.062 -4.883,-8.416c-2.075,-2.359 -4.517,-4.18 -7.321,-5.471c-2.808,-1.292 -5.837,-1.938 -9.087,-1.938c-3.259,0 -6.288,0.675 -9.092,2.021c-2.804,1.346 -5.246,3.2 -7.321,5.554c-2.079,2.359 -3.704,5.163 -4.883,8.417c-1.175,3.254 -1.767,6.792 -1.767,10.604m23.063,45.613c-7.184,-0 -13.638,-1.234 -19.359,-3.7c-5.721,-2.467 -10.579,-5.809 -14.558,-10.017c-3.988,-4.208 -7.046,-9.063 -9.175,-14.558c-2.133,-5.496 -3.2,-11.28 -3.2,-17.338c-0,-6.171 1.067,-12.004 3.2,-17.504c2.129,-5.5 5.187,-10.354 9.175,-14.558c3.979,-4.213 8.837,-7.546 14.558,-10.017c5.721,-2.467 12.175,-3.704 19.359,-3.704c7.179,-0 13.604,1.237 19.27,3.704c5.667,2.471 10.492,5.804 14.475,10.017c3.984,4.204 7.042,9.058 9.171,14.558c2.134,5.5 3.2,11.333 3.2,17.504c0,6.058 -1.066,11.842 -3.2,17.338c-2.129,5.495 -5.158,10.35 -9.087,14.558c-3.929,4.208 -8.75,7.55 -14.475,10.017c-5.721,2.466 -12.175,3.7 -19.354,3.7" style="fill:#1a2e35;fill-rule:nonzero;"/><path d="M1090.82,283.573c3.367,0 6.479,-0.729 9.342,-2.187c2.862,-1.459 5.304,-3.421 7.321,-5.892c2.016,-2.467 3.587,-5.329 4.712,-8.587c1.121,-3.25 1.684,-6.617 1.684,-10.096c-0,-3.704 -0.617,-7.154 -1.85,-10.35c-1.238,-3.2 -2.946,-5.975 -5.138,-8.334c-2.187,-2.358 -4.767,-4.208 -7.742,-5.554c-2.975,-1.346 -6.2,-2.021 -9.675,-2.021c-2.133,0 -4.32,0.367 -6.562,1.096c-2.25,0.729 -4.325,1.767 -6.233,3.113c-1.909,1.346 -3.617,2.921 -5.134,4.712c-1.512,1.796 -2.666,3.763 -3.45,5.892l0,20.704c2.021,5.05 5.104,9.229 9.259,12.538c4.15,3.312 8.641,4.966 13.466,4.966m7.571,19.188c-6.958,-0 -13.017,-1.542 -18.175,-4.629c-5.162,-3.084 -9.204,-7.263 -12.121,-12.538l0,51.338l-22.554,-0l0,-124.05l19.692,-0l-0,15.145c3.258,-5.158 7.462,-9.229 12.629,-12.204c5.158,-2.971 11.108,-4.458 17.837,-4.458c5.95,-0 11.446,1.204 16.496,3.621c5.05,2.412 9.4,5.662 13.046,9.758c3.646,4.1 6.504,8.921 8.583,14.475c2.075,5.554 3.113,11.421 3.113,17.592c-0,6.396 -0.954,12.4 -2.858,18.008c-1.909,5.613 -4.575,10.496 -7.996,14.646c-3.425,4.154 -7.492,7.404 -12.204,9.762c-4.713,2.355 -9.875,3.534 -15.488,3.534" style="fill:#1a2e35;fill-rule:nonzero;"/><path d="M1185.58,302.761c-7.405,-0 -14.646,-1.179 -21.713,-3.534c-7.071,-2.358 -13.129,-5.725 -18.179,-10.099l8.412,-14.138c5.388,3.812 10.634,6.704 15.742,8.667c5.104,1.966 10.183,2.945 15.233,2.945c4.484,0 8.021,-0.841 10.605,-2.525c2.579,-1.683 3.87,-4.095 3.87,-7.237c0,-3.142 -1.516,-5.442 -4.545,-6.9c-3.03,-1.458 -7.967,-3.142 -14.813,-5.05c-5.721,-1.571 -10.604,-3.088 -14.646,-4.546c-4.037,-1.454 -7.296,-3.112 -9.758,-4.967c-2.471,-1.85 -4.267,-3.979 -5.388,-6.391c-1.125,-2.413 -1.683,-5.304 -1.683,-8.671c0,-4.483 0.867,-8.525 2.608,-12.121c1.738,-3.587 4.18,-6.646 7.321,-9.171c3.142,-2.525 6.821,-4.458 11.029,-5.808c4.205,-1.346 8.775,-2.021 13.717,-2.021c6.617,0 12.817,0.954 18.596,2.863c5.779,1.908 11.083,4.995 15.908,9.258l-9.091,13.633c-4.488,-3.366 -8.834,-5.833 -13.046,-7.404c-4.204,-1.571 -8.384,-2.358 -12.534,-2.358c-3.816,-0 -7.016,0.787 -9.595,2.358c-2.584,1.571 -3.875,4.096 -3.875,7.575c-0,1.571 0.308,2.858 0.929,3.871c0.612,1.008 1.6,1.908 2.946,2.692c1.345,0.787 3.112,1.541 5.3,2.27c2.191,0.734 4.908,1.492 8.162,2.275c6.058,1.571 11.25,3.142 15.571,4.713c4.321,1.571 7.85,3.367 10.604,5.383c2.75,2.021 4.767,4.35 6.063,6.988c1.283,2.637 1.929,5.808 1.929,9.508c-0,8.646 -3.196,15.458 -9.592,20.454c-6.392,4.992 -15.092,7.488 -26.087,7.488" style="fill:#1a2e35;fill-rule:nonzero;"/><path d="M1240.28,275.662l22.554,0l0,25.417l-22.554,0l0,-25.417Zm0,-95.27l22.554,-0l0,75.746l-22.554,-0l0,-75.746Z" style="fill:#1a2e35;fill-rule:nonzero;"/></g><g id="Robot"><rect x="979.538" y="1307.69" width="147.971" height="12.125" style="fill:#2b454e;"/><rect x="979.538" y="1323.48" width="147.971" height="12.121" style="fill:#2b454e;"/><rect x="979.538" y="1339.27" width="147.971" height="12.121" style="fill:#2b454e;"/><rect x="979.538" y="1355.05" width="147.971" height="12.121" style="fill:#2b454e;"/><rect x="979.538" y="1370.84" width="147.971" height="12.121" style="fill:#2b454e;"/><rect x="910.242" y="1685.81" width="281.321" height="12.121" style="fill:#2b454e;"/><rect x="910.242" y="1701.6" width="281.321" height="12.121" style="fill:#2b454e;"/><rect x="910.242" y="1717.38" width="281.321" height="12.121" style="fill:#2b454e;"/><rect x="910.242" y="1733.17" width="281.321" height="12.121" style="fill:#2b454e;"/><rect x="910.242" y="1748.96" width="281.321" height="12.121" style="fill:#2b454e;"/><path d="M786.808,1207.5c0.138,-1.642 -61.575,-22.308 -61.575,-22.308l3.646,-212.029l81.829,-17.559l-23.9,251.896Z" style="fill:#ffc800;fill-rule:nonzero;"/><g opacity="0.2"><path d="M786.808,1207.5c0.138,-1.642 -61.575,-22.308 -61.575,-22.308l3.646,-212.029l81.829,-17.559l-23.9,251.896Z" style="fill-rule:nonzero;"/></g><path d="M1352.04,1290.72c0.433,-1.588 65.491,0.241 65.491,0.241l69.542,-200.329l-70.787,-44.646l-64.246,244.734Z" style="fill:#ffc800;fill-rule:nonzero;"/><g opacity="0.2"><path d="M1352.04,1290.72c0.433,-1.588 65.491,0.241 65.491,0.241l69.542,-200.329l-70.787,-44.646l-64.246,244.734Z" style="fill-rule:nonzero;"/></g><path d="M774.929,1285.56c-0,0 22.879,-342.904 42.946,-455.712c-0,-0 414.233,31.329 637.858,116.804c-0,0 -115.292,400.529 -121.254,420.408c-0,0 -291.7,-57.462 -559.55,-81.5" style="fill:#ffc800;fill-rule:nonzero;"/><g opacity="0.1"><path d="M1144.67,875.645c-6.734,41.287 -13.546,82.562 -20.6,123.796l-21.354,123.662l-1.155,-1.75l138.8,32.975l69.325,16.804l69.246,17.134l-69.612,-15.579l-69.538,-15.913l-138.921,-32.45l-1.404,-0.329l0.254,-1.421l22.109,-123.529c7.429,-41.167 15.1,-82.288 22.85,-123.4" style="fill-rule:nonzero;"/></g><g opacity="0.1"><path d="M1129.45,899.178c-0.021,-1.908 -0.863,-3.783 -2.288,-4.988c-1.425,-1.204 -3.292,-1.695 -4.987,-1.5c-3.496,0.405 -5.763,3.538 -5.713,6.488c-0.054,2.946 2.208,6.1 5.713,6.496c1.695,0.191 3.566,-0.296 4.987,-1.504c1.425,-1.209 2.267,-3.084 2.288,-4.992m-0,-0c0.079,3.783 -2.942,7.675 -7.275,8.054c-2.1,0.196 -4.384,-0.471 -6.092,-1.962c-1.708,-1.488 -2.729,-3.775 -2.742,-6.092c0.009,-2.313 1.025,-4.604 2.738,-6.096c1.704,-1.5 3.996,-2.158 6.096,-1.962c4.337,0.379 7.35,4.275 7.275,8.058" style="fill-rule:nonzero;"/></g><g opacity="0.1"><path d="M1122.17,950.201c-0.017,-1.908 -0.862,-3.783 -2.287,-4.987c-1.425,-1.204 -3.292,-1.696 -4.988,-1.5c-3.496,0.404 -5.762,3.537 -5.712,6.487c-0.055,2.946 2.208,6.1 5.712,6.496c1.696,0.192 3.567,-0.296 4.992,-1.504c1.421,-1.208 2.262,-3.083 2.283,-4.992m0,0c0.079,3.784 -2.942,7.675 -7.275,8.054c-2.1,0.196 -4.383,-0.47 -6.092,-1.962c-1.708,-1.488 -2.729,-3.775 -2.741,-6.092c0.012,-2.312 1.029,-4.604 2.737,-6.096c1.704,-1.5 3.996,-2.158 6.096,-1.962c4.338,0.379 7.354,4.275 7.275,8.058" style="fill-rule:nonzero;"/></g><g opacity="0.1"><path d="M1113.21,1004.11c-0.017,-1.909 -0.862,-3.784 -2.283,-4.988c-1.425,-1.204 -3.296,-1.696 -4.988,-1.504c-3.496,0.408 -5.766,3.542 -5.712,6.492c-0.059,2.946 2.208,6.096 5.712,6.496c1.696,0.191 3.567,-0.3 4.988,-1.509c1.425,-1.204 2.266,-3.079 2.283,-4.987m0,-0c0.079,3.783 -2.937,7.671 -7.271,8.05c-2.1,0.196 -4.383,-0.467 -6.091,-1.959c-1.709,-1.491 -2.73,-3.779 -2.742,-6.091c0.008,-2.313 1.025,-4.609 2.737,-6.096c1.705,-1.5 3.996,-2.158 6.096,-1.963c4.338,0.38 7.35,4.275 7.271,8.059" style="fill-rule:nonzero;"/></g><g opacity="0.1"><path d="M1104.26,1058.02c-0.016,-1.908 -0.862,-3.783 -2.287,-4.987c-1.425,-1.205 -3.292,-1.696 -4.988,-1.505c-3.496,0.409 -5.762,3.546 -5.712,6.492c-0.054,2.946 2.208,6.1 5.712,6.5c1.696,0.188 3.567,-0.304 4.992,-1.512c1.421,-1.204 2.262,-3.079 2.283,-4.988m0,0c0.079,3.784 -2.941,7.675 -7.275,8.054c-2.1,0.192 -4.383,-0.47 -6.091,-1.962c-1.709,-1.488 -2.73,-3.775 -2.742,-6.092c0.012,-2.312 1.029,-4.604 2.737,-6.096c1.705,-1.495 3.996,-2.158 6.096,-1.962c4.338,0.379 7.354,4.279 7.275,8.058" style="fill-rule:nonzero;"/></g><g opacity="0.1"><path d="M1134.78,1144c-0.017,-1.908 -0.863,-3.783 -2.288,-4.987c-1.425,-1.205 -3.291,-1.696 -4.983,-1.5c-3.5,0.404 -5.767,3.541 -5.712,6.487c-0.059,2.946 2.208,6.1 5.712,6.5c1.692,0.188 3.563,-0.304 4.988,-1.508c1.42,-1.209 2.266,-3.084 2.283,-4.992m-0,0c0.079,3.783 -2.942,7.675 -7.271,8.054c-2.104,0.196 -4.387,-0.471 -6.096,-1.962c-1.708,-1.488 -2.729,-3.775 -2.741,-6.092c0.012,-2.312 1.029,-4.604 2.737,-6.096c1.704,-1.496 3.996,-2.158 6.1,-1.962c4.338,0.379 7.35,4.279 7.271,8.058" style="fill-rule:nonzero;"/></g><g opacity="0.1"><path d="M1185.67,1156.42c-0.021,-1.909 -0.863,-3.784 -2.288,-4.988c-1.425,-1.204 -3.291,-1.696 -4.987,-1.504c-3.496,0.408 -5.763,3.546 -5.713,6.492c-0.054,2.946 2.209,6.1 5.713,6.5c1.696,0.187 3.566,-0.304 4.987,-1.513c1.425,-1.204 2.267,-3.079 2.288,-4.987m-0,-0c0.079,3.783 -2.942,7.675 -7.275,8.054c-2.1,0.191 -4.384,-0.471 -6.092,-1.963c-1.708,-1.491 -2.729,-3.775 -2.742,-6.091c0.013,-2.313 1.025,-4.605 2.738,-6.096c1.704,-1.496 3.996,-2.159 6.096,-1.963c4.337,0.379 7.35,4.279 7.275,8.059" style="fill-rule:nonzero;"/></g><g opacity="0.1"><path d="M1236.56,1168.83c-0.017,-1.908 -0.863,-3.783 -2.284,-4.987c-1.429,-1.204 -3.295,-1.696 -4.987,-1.504c-3.496,0.404 -5.767,3.541 -5.712,6.491c-0.059,2.946 2.208,6.1 5.712,6.496c1.696,0.192 3.563,-0.3 4.988,-1.508c1.42,-1.204 2.266,-3.079 2.283,-4.988m-0,0c0.079,3.784 -2.942,7.675 -7.271,8.054c-2.104,0.192 -4.383,-0.475 -6.092,-1.962c-1.708,-1.492 -2.733,-3.775 -2.745,-6.092c0.012,-2.312 1.029,-4.604 2.737,-6.096c1.708,-1.5 3.996,-2.158 6.1,-1.966c4.338,0.383 7.35,4.279 7.271,8.062" style="fill-rule:nonzero;"/></g><g opacity="0.1"><path d="M1287.45,1181.25c-0.021,-1.909 -0.862,-3.784 -2.287,-4.988c-1.425,-1.204 -3.292,-1.695 -4.988,-1.504c-3.496,0.404 -5.762,3.542 -5.712,6.492c-0.055,2.946 2.208,6.096 5.712,6.496c1.696,0.191 3.567,-0.3 4.992,-1.509c1.421,-1.204 2.262,-3.079 2.283,-4.987m0,-0c0.079,3.783 -2.942,7.671 -7.275,8.05c-2.1,0.196 -4.383,-0.471 -6.092,-1.958c-1.708,-1.492 -2.729,-3.78 -2.741,-6.092c0.012,-2.317 1.025,-4.608 2.737,-6.1c1.704,-1.496 3.996,-2.154 6.096,-1.963c4.338,0.384 7.354,4.28 7.275,8.063" style="fill-rule:nonzero;"/></g><g opacity="0.1"><path d="M1338.31,1194.22c0.129,-1.904 -0.571,-3.838 -1.896,-5.146c-1.325,-1.317 -3.15,-1.946 -4.858,-1.883c-3.517,0.133 -6.017,3.087 -6.192,6.033c-0.283,2.929 1.733,6.25 5.196,6.913c1.675,0.325 3.579,-0.021 5.087,-1.117c1.513,-1.092 2.5,-2.9 2.663,-4.8m-0,-0c-0.217,3.779 -3.525,7.425 -7.871,7.467c-2.113,0.037 -4.338,-0.8 -5.925,-2.421c-1.588,-1.617 -2.433,-3.975 -2.263,-6.288c0.184,-2.304 1.38,-4.512 3.196,-5.866c1.817,-1.359 4.15,-1.842 6.229,-1.488c4.296,0.713 7,4.833 6.634,8.596" style="fill-rule:nonzero;"/></g><g opacity="0.1"><path d="M1095.3,1111.93c-0.016,-1.909 -0.862,-3.78 -2.283,-4.984c-1.429,-1.208 -3.296,-1.7 -4.988,-1.504c-3.495,0.404 -5.766,3.542 -5.712,6.488c-0.058,2.945 2.208,6.1 5.712,6.5c1.696,0.187 3.563,-0.3 4.988,-1.509c1.425,-1.208 2.267,-3.083 2.283,-4.991m0,-0c0.079,3.783 -2.941,7.675 -7.271,8.054c-2.1,0.196 -4.383,-0.471 -6.091,-1.959c-1.713,-1.491 -2.734,-3.779 -2.746,-6.095c0.012,-2.313 1.029,-4.605 2.737,-6.096c1.709,-1.496 3.996,-2.159 6.1,-1.963c4.338,0.384 7.35,4.279 7.271,8.059" style="fill-rule:nonzero;"/></g><g opacity="0.2"><path d="M1047.09,1132.6c-10.392,64.129 -70.8,107.692 -134.929,97.304c-64.13,-10.392 -107.692,-70.8 -97.304,-134.929c10.387,-64.129 70.799,-107.696 134.929,-97.304c64.129,10.387 107.691,70.796 97.304,134.929" style="fill-rule:nonzero;"/></g><path d="M1024.1,1128.87c-8.334,51.433 -56.779,86.371 -108.213,78.037c-51.429,-8.333 -86.366,-56.779 -78.037,-108.208c8.333,-51.433 56.783,-86.371 108.212,-78.042c51.429,8.334 86.371,56.779 78.038,108.213" style="fill:#1a2e35;fill-rule:nonzero;"/><path d="M903.21,1075.6l22.055,3.571l-3.571,22.054l-22.054,-3.571l3.57,-22.054Z" style="fill:#ffc800;"/><path d="M884.729,1049.97l22.054,3.571l-3.571,22.054l-22.054,-3.571l3.571,-22.054Z" style="fill:#ffc800;"/><path d="M972.945,1064.26l22.055,3.571l-3.571,22.054l-22.054,-3.57l3.57,-22.055Z" style="fill:#ffc800;"/><path d="M870.518,1137.69l22.055,3.571l-3.571,22.054l-22.054,-3.571l3.57,-22.054Z" style="fill:#ffc800;"/><path d="M958.734,1151.98l22.054,3.571l-3.57,22.054l-22.055,-3.571l3.571,-22.054Z" style="fill:#ffc800;"/><path d="M896.145,1119.21l22.054,3.57l-3.571,22.055l-22.054,-3.571l3.571,-22.054Z" style="fill:#ffc800;"/><path d="M921.735,1100.97l22.05,3.57l-3.571,22.055l-22.05,-3.57l3.571,-22.055Z" style="fill:#ffc800;"/><path d="M947.319,1082.74l22.055,3.571l-3.572,22.058l-22.055,-3.571l3.572,-22.058Z" style="fill:#ffc800;"/><path d="M940.253,1126.35l22.058,3.575l-3.575,22.054l-22.058,-3.576l3.575,-22.054Z" style="fill:#ffc800;"/><path d="M1361.08,1190.28c-15.021,63.209 -78.438,102.267 -141.642,87.246c-63.204,-15.021 -102.266,-78.438 -87.246,-141.642c15.021,-63.204 78.438,-102.266 141.642,-87.241c63.204,15.016 102.263,78.433 87.246,141.637" style="fill:#ffc800;fill-rule:nonzero;"/><g opacity="0.2"><path d="M1361.08,1190.28c-15.021,63.209 -78.438,102.267 -141.642,87.246c-63.204,-15.021 -102.266,-78.438 -87.246,-141.642c15.021,-63.204 78.438,-102.266 141.642,-87.241c63.204,15.016 102.263,78.433 87.246,141.637" style="fill-rule:nonzero;"/></g><g opacity="0.2"><path d="M1361.08,1190.3c-0.541,2.316 -1.158,4.554 -1.85,6.791l-229.287,-48.904c0.541,-4.092 1.275,-8.183 2.237,-12.317c15.017,-63.187 78.438,-102.25 141.663,-87.233c63.191,15.013 102.254,78.433 87.237,141.663" style="fill-rule:nonzero;"/></g><path d="M1338.41,1184.9c-12.046,50.687 -62.904,82.017 -113.591,69.971c-50.692,-12.05 -82.017,-62.909 -69.971,-113.596c12.05,-50.692 62.904,-82.017 113.596,-69.971c50.687,12.05 82.016,62.904 69.966,113.596" style="fill:#1a2e35;fill-rule:nonzero;"/><path d="M1248.62,1106.4l21.74,5.167l-25.715,108.191l-21.74,-5.167l25.715,-108.191Z" style="fill:#ffc800;"/><path d="M1367.91,1188.09l-240.842,-57.238c15.804,-66.491 82.542,-107.575 149.033,-91.775c66.492,15.805 107.609,82.521 91.809,149.013" style="fill:#ffc800;fill-rule:nonzero;"/><g opacity="0.2"><path d="M1367.91,1188.09l-240.842,-57.238c15.804,-66.491 82.542,-107.575 149.033,-91.775c66.492,15.805 107.609,82.521 91.809,149.013" style="fill-rule:nonzero;"/></g><g opacity="0.1"><path d="M1041.96,1233.01c0.608,-9.404 4.066,-18.942 10.879,-26.483c3.367,-3.805 7.85,-6.784 12.796,-8.605c4.962,-1.82 10.329,-2.145 15.416,-1.708c5.18,0.6 10.471,2.429 14.784,5.692c4.233,3.337 7.479,7.679 9.387,12.358c3.925,9.325 4.359,19.292 2.454,28.538c-1.566,-9.242 -3.958,-18.213 -8.291,-25.575c-4.304,-7.417 -11.113,-12.034 -19.225,-12.755c-8.275,-1.029 -16.35,1.196 -22.85,6.692c-6.509,5.479 -11.471,13.329 -15.35,21.846" style="fill-rule:nonzero;"/></g><path d="M807.151,993.083c0.975,-12.571 2.388,-25.075 3.579,-37.613c1.338,-12.517 2.713,-25.029 4.234,-37.517c1.45,-12.504 3.075,-24.979 4.675,-37.458c1.566,-12.483 3.375,-24.933 5.05,-37.404l0.45,-3.329l3.375,0.212c27.141,1.708 54.225,3.9 81.266,6.683c13.521,1.388 27.03,2.955 40.513,4.692c13.462,1.938 26.942,3.717 40.329,6.167l-81.325,-5.034l-81.233,-5.254l3.821,-3.116c-1.846,12.441 -3.563,24.904 -5.517,37.337c-1.925,12.429 -3.821,24.871 -5.896,37.283c-2,12.421 -4.146,24.825 -6.333,37.221c-2.329,12.375 -4.442,24.784 -6.988,37.129" style="fill:#fff;fill-rule:nonzero;"/><path d="M826.715,1088.15c2.729,-15.108 9.596,-29.508 18.821,-42.041c2.291,-3.155 4.908,-6.067 7.421,-9.067c2.72,-2.804 5.55,-5.521 8.341,-8.279c3.046,-2.475 6.121,-4.929 9.246,-7.309c3.321,-2.108 6.6,-4.304 9.975,-6.32c3.558,-1.709 7.088,-3.471 10.675,-5.092l11.179,-3.867l11.567,-2.387c3.879,-0.571 7.825,-0.688 11.725,-0.979c15.683,-0.409 31.117,2.941 45.288,8.679c-15.08,-2.825 -30.105,-4.396 -44.921,-2.979c-14.771,1.375 -29.13,5.791 -41.967,13.025c-12.938,7.062 -24.396,16.804 -34.079,28.12c-9.642,11.375 -17.621,24.259 -23.271,38.496" style="fill:#fff;fill-rule:nonzero;"/><path d="M1151.19,1119.93c4.792,-14.588 13.583,-27.896 24.446,-39.038c2.708,-2.808 5.7,-5.333 8.604,-7.954c3.079,-2.404 6.258,-4.704 9.404,-7.05c3.359,-2.029 6.746,-4.033 10.167,-5.962c3.579,-1.63 7.129,-3.35 10.754,-4.884c3.754,-1.2 7.5,-2.458 11.275,-3.571l11.604,-2.287l11.784,-0.763c3.925,-0.029 7.85,0.4 11.75,0.646c15.591,1.767 30.412,7.213 43.654,14.85c-14.546,-4.879 -29.209,-8.504 -44.075,-9.154c-14.825,-0.675 -29.654,1.717 -43.367,7.109c-13.792,5.208 -26.483,13.274 -37.629,23.145c-11.121,9.938 -20.804,21.592 -28.371,34.913" style="fill:#fff;fill-rule:nonzero;"/><path d="M788.09,1496.88c-30.133,0 -96.1,-6.775 -138.546,-61.354c-54.312,-69.821 -34.683,-203.808 -33.821,-209.479l23.579,3.579c-0.195,1.292 -18.937,129.546 29.063,191.263c46.929,60.337 132.05,51.675 132.904,51.571l2.683,23.695c-0.933,0.109 -6.766,0.725 -15.862,0.725" style="fill:#ffc800;fill-rule:nonzero;"/><g opacity="0.4"><path d="M788.09,1496.88c-30.133,0 -96.1,-6.775 -138.546,-61.354c-54.312,-69.821 -34.683,-203.808 -33.821,-209.479l23.579,3.579c-0.195,1.292 -18.937,129.546 29.063,191.263c46.929,60.337 132.05,51.675 132.904,51.571l2.683,23.695c-0.933,0.109 -6.766,0.725 -15.862,0.725" style="fill:#fff;fill-rule:nonzero;"/></g><path d="M646.24,1245.85c-4.3,-0 -8.691,-0.359 -13.162,-1.084c-39.775,-6.441 -57.383,-30.245 -65.154,-49.075c-7.788,-18.875 -9.588,-41.708 -5.35,-67.858l50.441,8.175c-2.625,16.2 -1.862,30.475 2.15,40.196c2.859,6.929 8.409,15.254 26.084,18.121c8.075,1.304 16.804,0.616 25.946,-13.171c7.058,-10.642 11.295,-25.129 12.783,-34.3l50.442,8.171c-1.171,7.221 -6.113,32.466 -20.638,54.366c-15.796,23.821 -38.025,36.459 -63.542,36.459" style="fill:#ffc800;fill-rule:nonzero;"/><path d="M837.917,1565.14c-0.087,-1.088 -42.733,-7.9 -42.733,-7.9l-20.7,-139.192l51.65,-20.4l11.783,167.492Z" style="fill:#ffc800;fill-rule:nonzero;"/><g opacity="0.2"><path d="M837.917,1565.14c-0.087,-1.088 -42.733,-7.9 -42.733,-7.9l-20.7,-139.192l51.65,-20.4l11.783,167.492Z" style="fill-rule:nonzero;"/></g><path d="M1259.57,1565.39c0.113,-1.083 42.9,-6.95 42.9,-6.95l23.771,-138.7l-51.187,-21.538l-15.484,167.188Z" style="fill:#ffc800;fill-rule:nonzero;"/><g opacity="0.2"><path d="M1259.57,1565.39c0.113,-1.083 42.9,-6.95 42.9,-6.95l23.771,-138.7l-51.187,-21.538l-15.484,167.188Z" style="fill-rule:nonzero;"/></g><path d="M820.172,1366.48c0,-0 344.942,-14.75 461.458,4.67c0,0 -34.212,333.775 -36.062,340.246c-0,0 -343.129,-0.921 -396.767,0c0,0 -29.071,-221.941 -28.629,-344.916" style="fill:#ffc800;fill-rule:nonzero;"/><g opacity="0.2"><path d="M924.945,1457.94c0,-0 188.304,-7.434 251.913,2.354c-0,-0 -18.68,168.312 -19.688,171.575c0,-0 -187.317,-0.467 -216.6,-0c0,-0 -12.862,-115.192 -15.625,-173.929" style="fill-rule:nonzero;"/></g><g opacity="0.2"><path d="M950.684,1631.8c-4.313,0 -7.729,0.059 -10.121,0.088c-0,-0 -12.85,-115.217 -15.629,-173.954c-0,-0 4.283,-0.167 11.762,-0.413l13.988,174.279Z" style="fill-rule:nonzero;"/></g><path d="M1016.98,1523.86c-2.925,9.275 -12.792,14.416 -22.054,11.5c-9.267,-2.921 -14.409,-12.792 -11.488,-22.067c2.921,-9.263 12.792,-14.404 22.067,-11.483c9.25,2.916 14.396,12.787 11.475,22.05m-10.75,-24.388c-10.554,-3.321 -21.8,2.538 -25.125,13.083c-3.329,10.563 2.537,21.8 13.092,25.125c10.545,3.325 21.779,-2.529 25.104,-13.083c3.325,-10.546 -2.525,-21.8 -13.071,-25.125m10.75,24.388c-2.925,9.275 -12.792,14.416 -22.054,11.5c-9.267,-2.921 -14.409,-12.792 -11.488,-22.067c2.921,-9.263 12.792,-14.404 22.067,-11.483c9.25,2.916 14.396,12.787 11.475,22.05m-10.75,-24.388c-10.554,-3.321 -21.8,2.538 -25.125,13.083c-3.329,10.563 2.537,21.8 13.092,25.125c10.545,3.325 21.779,-2.529 25.104,-13.083c3.325,-10.546 -2.525,-21.8 -13.071,-25.125m10.75,24.388c-2.925,9.275 -12.792,14.416 -22.054,11.5c-9.267,-2.921 -14.409,-12.792 -11.488,-22.067c2.921,-9.263 12.792,-14.404 22.067,-11.483c9.25,2.916 14.396,12.787 11.475,22.05m2.321,0.737c3.325,-10.546 -2.525,-21.8 -13.071,-25.125c-10.554,-3.321 -21.8,2.538 -25.125,13.083c-3.329,10.563 2.537,21.8 13.092,25.125c10.545,3.325 21.779,-2.529 25.104,-13.083m2.975,0.929c-3.834,12.179 -16.85,18.963 -29.021,15.129c-12.167,-3.837 -18.95,-16.854 -15.113,-29.029c3.838,-12.175 16.863,-18.95 29.029,-15.112c12.155,3.829 18.942,16.846 15.105,29.012m-9.371,-47.212c-22.254,-7.004 -45.95,5.354 -52.959,27.579c-7.004,22.229 5.334,45.946 27.575,52.95c22.225,7 45.942,-5.35 52.942,-27.583c7.008,-22.221 -5.333,-45.946 -27.558,-52.946m4.075,45.546c-2.925,9.275 -12.792,14.416 -22.054,11.5c-9.267,-2.921 -14.409,-12.792 -11.488,-22.067c2.921,-9.263 12.792,-14.404 22.067,-11.483c9.25,2.916 14.396,12.787 11.475,22.05m-10.75,-24.388c-10.554,-3.321 -21.8,2.538 -25.125,13.083c-3.329,10.563 2.537,21.8 13.091,25.125c10.546,3.325 21.78,-2.529 25.105,-13.083c3.325,-10.546 -2.525,-21.8 -13.071,-25.125m10.75,24.388c-2.925,9.275 -12.792,14.416 -22.054,11.5c-9.267,-2.921 -14.409,-12.792 -11.488,-22.067c2.921,-9.263 12.792,-14.404 22.067,-11.483c9.25,2.916 14.396,12.787 11.475,22.05m-10.75,-24.388c-10.554,-3.321 -21.8,2.538 -25.125,13.083c-3.329,10.563 2.537,21.8 13.091,25.125c10.546,3.325 21.78,-2.529 25.105,-13.083c3.325,-10.546 -2.525,-21.8 -13.071,-25.125m10.75,24.388c-2.925,9.275 -12.792,14.416 -22.054,11.5c-9.267,-2.921 -14.409,-12.792 -11.488,-22.067c2.921,-9.263 12.792,-14.404 22.067,-11.483c9.25,2.916 14.396,12.787 11.475,22.05m-10.75,-24.388c-10.554,-3.321 -21.8,2.538 -25.125,13.083c-3.329,10.563 2.537,21.8 13.091,25.125c10.546,3.325 21.78,-2.529 25.105,-13.083c3.325,-10.546 -2.525,-21.8 -13.071,-25.125" style="fill:#ffc800;fill-rule:nonzero;"/><path d="M995.785,1559.6l-15.484,-4.875l-2.596,11.225l13.771,4.337l4.309,-10.687Z" style="fill:#ffc800;fill-rule:nonzero;"/><path d="M967.96,1545.11l-7.495,-14.396l-9.78,6.104l6.671,12.8l10.604,-4.508Z" style="fill:#ffc800;fill-rule:nonzero;"/><path d="M958.541,1515.18l4.879,-15.483l-11.229,-2.596l-4.338,13.771l10.688,4.308Z" style="fill:#ffc800;fill-rule:nonzero;"/><path d="M973.041,1487.35l14.396,-7.495l-6.1,-9.78l-12.809,6.671l4.513,10.604Z" style="fill:#ffc800;fill-rule:nonzero;"/><path d="M1002.97,1477.93l15.479,4.879l2.6,-11.229l-13.77,-4.338l-4.309,10.688Z" style="fill:#ffc800;fill-rule:nonzero;"/><path d="M1030.79,1492.44l7.5,14.396l9.775,-6.104l-6.671,-12.805l-10.604,4.513Z" style="fill:#ffc800;fill-rule:nonzero;"/><path d="M1040.21,1522.36l-4.879,15.48l11.229,2.6l4.338,-13.771l-10.688,-4.309Z" style="fill:#ffc800;fill-rule:nonzero;"/><path d="M1025.71,1550.18l-14.396,7.5l6.104,9.775l12.804,-6.667l-4.512,-10.608Z" style="fill:#ffc800;fill-rule:nonzero;"/><path d="M1076.87,1576.14c-3.567,5.484 -10.9,7.034 -16.384,3.467c-5.475,-3.567 -7.025,-10.896 -3.454,-16.387c3.567,-5.475 10.896,-7.025 16.384,-3.459c5.47,3.571 7.02,10.9 3.454,16.379m-2.559,-17.758c-6.241,-4.067 -14.595,-2.296 -18.658,3.942c-4.067,6.25 -2.3,14.596 3.942,18.658c6.241,4.067 14.583,2.3 18.65,-3.946c4.062,-6.233 2.304,-14.591 -3.934,-18.654m2.559,17.758c-3.567,5.484 -10.9,7.034 -16.384,3.467c-5.475,-3.567 -7.025,-10.896 -3.454,-16.387c3.567,-5.475 10.896,-7.025 16.383,-3.459c5.471,3.571 7.021,10.9 3.455,16.379m-2.559,-17.758c-6.241,-4.067 -14.596,-2.296 -18.658,3.942c-4.067,6.25 -2.3,14.596 3.942,18.658c6.241,4.067 14.583,2.3 18.65,-3.946c4.062,-6.233 2.304,-14.591 -3.934,-18.654m2.559,17.758c-3.567,5.484 -10.9,7.034 -16.384,3.467c-5.475,-3.567 -7.025,-10.896 -3.454,-16.387c3.567,-5.475 10.896,-7.025 16.383,-3.459c5.471,3.571 7.021,10.9 3.455,16.379m1.375,0.896c4.062,-6.233 2.304,-14.591 -3.934,-18.654c-6.241,-4.067 -14.596,-2.296 -18.658,3.942c-4.067,6.25 -2.3,14.596 3.942,18.658c6.241,4.067 14.583,2.3 18.65,-3.946m1.762,1.142c-4.692,7.204 -14.358,9.25 -21.558,4.562c-7.196,-4.687 -9.242,-14.354 -4.554,-21.558c4.691,-7.2 14.366,-9.242 21.562,-4.554c7.192,4.683 9.238,14.354 4.55,21.55m2.458,-32.313c-13.162,-8.566 -30.766,-4.837 -39.333,8.309c-8.558,13.154 -4.846,30.758 8.308,39.325c13.15,8.558 30.759,4.837 39.321,-8.313c8.567,-13.141 4.85,-30.762 -8.296,-39.321m-5.595,30.275c-3.567,5.484 -10.9,7.034 -16.384,3.467c-5.475,-3.567 -7.025,-10.896 -3.454,-16.387c3.567,-5.475 10.896,-7.025 16.383,-3.459c5.471,3.571 7.021,10.9 3.455,16.379m-2.559,-17.758c-6.241,-4.067 -14.596,-2.296 -18.658,3.942c-4.067,6.25 -2.3,14.596 3.942,18.658c6.241,4.067 14.583,2.3 18.65,-3.946c4.062,-6.233 2.304,-14.591 -3.934,-18.654m2.559,17.758c-3.567,5.484 -10.9,7.034 -16.384,3.467c-5.475,-3.567 -7.025,-10.896 -3.454,-16.387c3.567,-5.475 10.896,-7.025 16.383,-3.459c5.471,3.571 7.021,10.9 3.455,16.379m-2.559,-17.758c-6.241,-4.067 -14.596,-2.296 -18.658,3.942c-4.067,6.25 -2.3,14.596 3.942,18.658c6.241,4.067 14.583,2.3 18.65,-3.946c4.062,-6.233 2.304,-14.591 -3.934,-18.654m2.559,17.758c-3.567,5.484 -10.9,7.034 -16.384,3.467c-5.475,-3.567 -7.025,-10.896 -3.454,-16.387c3.567,-5.475 10.896,-7.025 16.383,-3.459c5.471,3.571 7.021,10.9 3.455,16.379m-2.559,-17.758c-6.241,-4.067 -14.596,-2.296 -18.658,3.942c-4.067,6.25 -2.3,14.596 3.942,18.658c6.241,4.067 14.583,2.3 18.65,-3.946c4.062,-6.233 2.304,-14.591 -3.934,-18.654" style="fill:#dcdcdc;fill-rule:nonzero;"/><path d="M1056.66,1595.49l-9.154,-5.963l-3.717,6.813l8.146,5.304l4.725,-6.154Z" style="fill:#dcdcdc;fill-rule:nonzero;"/><path d="M1041.25,1581.06l-2.258,-10.692l-7.446,2.192l2.013,9.508l7.691,-1.008Z" style="fill:#dcdcdc;fill-rule:nonzero;"/><path d="M1040.55,1559.95l5.967,-9.159l-6.817,-3.716l-5.304,8.146l6.154,4.729Z" style="fill:#dcdcdc;fill-rule:nonzero;"/><path d="M1054.99,1544.53l10.687,-2.262l-2.187,-7.442l-9.509,2.008l1.009,7.696Z" style="fill:#dcdcdc;fill-rule:nonzero;"/><path d="M1076.1,1543.83l9.158,5.966l3.712,-6.812l-8.141,-5.309l-4.729,6.155Z" style="fill:#dcdcdc;fill-rule:nonzero;"/><path d="M1091.52,1558.26l2.259,10.688l7.441,-2.188l-2.004,-9.508l-7.696,1.008Z" style="fill:#dcdcdc;fill-rule:nonzero;"/><path d="M1092.21,1579.37l-5.962,9.159l6.812,3.716l5.304,-8.146l-6.154,-4.729Z" style="fill:#dcdcdc;fill-rule:nonzero;"/><path d="M1077.78,1594.8l-10.691,2.258l2.187,7.442l9.508,-2.004l-1.004,-7.696Z" style="fill:#dcdcdc;fill-rule:nonzero;"/><path d="M1273.31,1672.56l13.254,2.466l37.917,-256.779l-15.108,-2.775l-36.063,257.088Z" style="fill:#ffc800;fill-rule:nonzero;"/><path d="M1157.17,1631.87l19.691,-171.575l132.513,-44.825c-0,0 -36.063,259.867 -36.063,257.092l-116.141,-40.692Z" style="fill:#ffc800;fill-rule:nonzero;"/><g opacity="0.4"><path d="M1157.17,1631.87l19.691,-171.575l132.513,-44.825c-0,0 -36.063,259.867 -36.063,257.092l-116.141,-40.692Z" style="fill:#fff;fill-rule:nonzero;"/></g><path d="M836,1467.25c-2.158,-14.213 -3.325,-28.542 -4.212,-42.88c-0.404,-7.175 -0.588,-14.358 -0.746,-21.541c-0.146,-7.188 -0.271,-14.375 -0.058,-21.563l0.058,-1.887l1.838,-0.1c26.325,-1.413 52.633,-3.142 78.975,-4.296c26.329,-1.296 52.666,-2.475 79.016,-3.304c-26.271,2.383 -52.554,4.408 -78.846,6.312c-26.283,2.054 -52.595,3.529 -78.891,5.321l1.896,-1.983l-0.109,21.454l0.25,21.467c0.038,7.158 0.167,14.32 0.375,21.483l0.454,21.517Z" style="fill:#fff;fill-rule:nonzero;"/><path d="M1195.35,1462.81c8.208,-3.9 16.546,-7.525 24.983,-10.87c8.413,-3.43 16.905,-6.667 25.488,-9.646c8.6,-2.938 17.229,-5.809 26.004,-8.246c8.758,-2.471 17.6,-4.75 26.633,-6.225l2.221,-0.363l-0.396,2.117c-2.079,11.108 -4.258,22.204 -6.829,33.233c0.963,-11.283 2.325,-22.504 3.775,-33.716l1.825,1.758c-8.754,2.088 -17.437,4.529 -26.096,7.088c-8.65,2.583 -17.275,5.312 -25.875,8.116l-51.733,16.754Z" style="fill:#fff;fill-rule:nonzero;"/><g opacity="0.1"><path d="M893.345,1367.17l2.233,42.917l1.909,42.925l3.308,85.863l2.588,85.891l1.033,42.959l0.712,42.962l-2.237,-42.908l-1.908,-42.929l-3.305,-85.867l-2.583,-85.892l-1.037,-42.954l-0.713,-42.967Z" style="fill-rule:nonzero;"/></g><g opacity="0.1"><path d="M881.055,1393.04c-0.396,-1.867 -1.592,-3.537 -3.225,-4.433c-1.638,-0.9 -3.563,-1.017 -5.188,-0.492c-3.346,1.092 -4.95,4.613 -4.317,7.492c0.53,2.9 3.371,5.541 6.884,5.241c1.7,-0.145 3.437,-0.995 4.591,-2.466c1.159,-1.459 1.613,-3.467 1.255,-5.342m-0,0c0.825,3.696 -1.367,8.104 -5.538,9.329c-2.021,0.613 -4.392,0.409 -6.358,-0.716c-1.971,-1.117 -3.425,-3.159 -3.896,-5.425c-0.446,-2.271 0.096,-4.721 1.479,-6.521c1.379,-1.804 3.492,-2.904 5.588,-3.129c4.329,-0.484 8.05,2.737 8.725,6.462" style="fill-rule:nonzero;"/></g><g opacity="0.1"><path d="M884.009,1444.5c-0.392,-1.867 -1.592,-3.542 -3.225,-4.438c-1.638,-0.9 -3.563,-1.012 -5.188,-0.487c-3.346,1.087 -4.95,4.612 -4.316,7.491c0.529,2.9 3.37,5.542 6.883,5.238c1.7,-0.146 3.437,-0.996 4.596,-2.463c1.154,-1.462 1.608,-3.47 1.25,-5.341m-0,-0c0.825,3.696 -1.367,8.1 -5.538,9.329c-2.021,0.608 -4.387,0.408 -6.358,-0.717c-1.971,-1.121 -3.425,-3.162 -3.896,-5.429c-0.442,-2.267 0.096,-4.721 1.479,-6.517c1.379,-1.804 3.492,-2.908 5.592,-3.129c4.325,-0.483 8.05,2.738 8.721,6.463" style="fill-rule:nonzero;"/></g><g opacity="0.1"><path d="M885.885,1499.12c-0.396,-1.867 -1.596,-3.542 -3.225,-4.437c-1.638,-0.9 -3.567,-1.013 -5.188,-0.488c-3.346,1.088 -4.95,4.613 -4.317,7.492c0.525,2.9 3.371,5.541 6.884,5.237c1.7,-0.146 3.437,-0.996 4.591,-2.462c1.159,-1.463 1.613,-3.471 1.255,-5.342m-0,0c0.825,3.696 -1.367,8.1 -5.542,9.329c-2.017,0.609 -4.388,0.409 -6.354,-0.716c-1.971,-1.121 -3.425,-3.163 -3.896,-5.43c-0.446,-2.266 0.096,-4.72 1.479,-6.516c1.379,-1.804 3.492,-2.909 5.588,-3.129c4.329,-0.484 8.05,2.737 8.725,6.462" style="fill-rule:nonzero;"/></g><g opacity="0.1"><path d="M887.758,1553.74c-0.395,-1.866 -1.591,-3.541 -3.225,-4.437c-1.637,-0.9 -3.562,-1.013 -5.187,-0.488c-3.346,1.088 -4.95,4.613 -4.317,7.492c0.529,2.9 3.371,5.542 6.884,5.238c1.7,-0.146 3.437,-0.996 4.595,-2.463c1.155,-1.462 1.609,-3.471 1.25,-5.342m0,0c0.825,3.696 -1.366,8.1 -5.537,9.33c-2.021,0.608 -4.392,0.408 -6.358,-0.717c-1.971,-1.121 -3.425,-3.163 -3.896,-5.429c-0.446,-2.267 0.096,-4.721 1.479,-6.517c1.379,-1.804 3.491,-2.908 5.591,-3.129c4.325,-0.483 8.05,2.737 8.721,6.462" style="fill-rule:nonzero;"/></g><g opacity="0.1"><path d="M889.634,1608.35c-0.396,-1.867 -1.596,-3.542 -3.225,-4.438c-1.637,-0.9 -3.566,-1.012 -5.187,-0.487c-3.346,1.087 -4.95,4.612 -4.317,7.491c0.525,2.9 3.371,5.542 6.883,5.238c1.7,-0.146 3.438,-0.996 4.592,-2.463c1.158,-1.462 1.613,-3.47 1.254,-5.341m0,-0c0.821,3.696 -1.366,8.1 -5.541,9.329c-2.017,0.612 -4.388,0.408 -6.355,-0.717c-1.97,-1.121 -3.425,-3.162 -3.895,-5.429c-0.446,-2.267 0.095,-4.721 1.479,-6.517c1.375,-1.804 3.491,-2.908 5.587,-3.129c4.329,-0.483 8.05,2.738 8.725,6.463" style="fill-rule:nonzero;"/></g><g opacity="0.1"><path d="M891.508,1662.97c-0.396,-1.867 -1.592,-3.542 -3.225,-4.437c-1.638,-0.9 -3.563,-1.013 -5.188,-0.488c-3.345,1.088 -4.95,4.613 -4.316,7.492c0.529,2.9 3.371,5.541 6.883,5.237c1.7,-0.146 3.438,-0.996 4.592,-2.462c1.158,-1.463 1.612,-3.467 1.254,-5.342m-0,0c0.825,3.696 -1.367,8.1 -5.538,9.329c-2.02,0.613 -4.391,0.409 -6.358,-0.716c-1.971,-1.121 -3.425,-3.163 -3.896,-5.43c-0.446,-2.266 0.096,-4.72 1.479,-6.516c1.38,-1.804 3.492,-2.909 5.588,-3.129c4.329,-0.484 8.05,2.737 8.725,6.462" style="fill-rule:nonzero;"/></g><path d="M908.456,1746.48l6.914,22.811l-195.314,59.197l-6.914,-22.811l195.314,-59.197Z" style="fill:#ffc800;"/><g opacity="0.4"><path d="M908.456,1746.48l6.914,22.811l-195.314,59.197l-6.914,-22.811l195.314,-59.197Z" style="fill:#fff;"/></g><path d="M814.88,1767l10.737,33.751l-22.724,7.228l-10.736,-33.75l22.723,-7.229Z" style="fill:#ffc800;"/><path d="M718.447,1861.93l-50.4,-218.245l-152.125,36.062l74.908,212.7l127.617,-30.517Z" style="fill:#ffc800;fill-rule:nonzero;"/><path d="M752.201,1850.83l-33.754,11.1l-50.4,-218.246l48.55,11.559l35.604,195.587Z" style="fill:#ffc800;fill-rule:nonzero;"/><g opacity="0.2"><path d="M752.201,1850.83l-33.754,11.1l-50.4,-218.246l48.55,11.559l35.604,195.587Z" style="fill-rule:nonzero;"/></g><path d="M937.809,1757.89c0,14.3 -11.596,25.891 -25.896,25.891c-14.3,0 -25.891,-11.591 -25.891,-25.891c-0,-14.304 11.591,-25.896 25.891,-25.896c14.3,-0 25.896,11.592 25.896,25.896" style="fill:#ffc800;fill-rule:nonzero;"/><path d="M1178.39,1745.89l195.192,59.6l-6.963,22.804l-195.192,-59.6l6.963,-22.804Z" style="fill:#ffc800;"/><g opacity="0.4"><path d="M1178.39,1745.89l195.192,59.6l-6.963,22.804l-195.192,-59.6l6.963,-22.804Z" style="fill:#fff;"/></g><path d="M1271.93,1766.6l22.708,7.279l-10.812,33.729l-22.708,-7.279l10.812,-33.729Z" style="fill:#ffc800;"/><path d="M1368.16,1861.74l50.862,-218.141l152.05,36.391l-75.362,212.542l-127.55,-30.792Z" style="fill:#ffc800;fill-rule:nonzero;"/><path d="M1334.42,1850.57l33.733,11.17l50.863,-218.141l-48.575,11.458l-36.021,195.513Z" style="fill:#ffc800;fill-rule:nonzero;"/><g opacity="0.2"><path d="M1334.42,1850.57l33.733,11.17l50.863,-218.141l-48.575,11.458l-36.021,195.513Z" style="fill-rule:nonzero;"/></g><path d="M1149.02,1757.24c-0.029,14.3 11.542,25.916 25.838,25.95c14.304,0.025 25.921,-11.542 25.95,-25.842c0.033,-14.3 -11.538,-25.917 -25.838,-25.95c-14.3,-0.029 -25.916,11.538 -25.95,25.842" style="fill:#ffc800;fill-rule:nonzero;"/><path d="M1344.42,1488.05c0.613,-0.575 63.35,-58.762 137.146,-38.858c75.467,20.362 137.775,134.029 138.396,135.175l20.975,-11.338c-2.725,-5.045 -67.712,-123.85 -153.162,-146.862c-86.905,-23.438 -156.842,41.808 -159.775,44.6l16.42,17.283Z" style="fill:#ffc800;fill-rule:nonzero;"/><g opacity="0.4"><path d="M1344.42,1488.05c0.613,-0.575 63.35,-58.762 137.146,-38.858c75.467,20.362 137.775,134.029 138.396,135.175l20.975,-11.338c-2.725,-5.045 -67.712,-123.85 -153.162,-146.862c-86.905,-23.438 -156.842,41.808 -159.775,44.6l16.42,17.283Z" style="fill:#fff;fill-rule:nonzero;"/></g><path d="M1592.15,1698.8l45.196,-23.863c-4.342,-8.212 -9.683,-22.329 -10.458,-35.075c-1.005,-16.512 5.55,-22.325 12.779,-26.142c15.837,-8.362 25.283,-5.045 31.737,-1.245c9.054,5.345 18.259,16.283 25.925,30.8l45.192,-23.859c-12.371,-23.425 -27.554,-40.566 -45.142,-50.946c-17.546,-10.341 -45.937,-18.745 -81.571,0.063c-27.775,14.667 -41.958,41.1 -39.925,74.437c1.596,26.23 12.859,49.359 16.267,55.83" style="fill:#ffc800;fill-rule:nonzero;"/><path d="M1353.95,1408.43c9.796,-6.771 19.825,-13.142 29.883,-19.458c10.038,-6.354 20.242,-12.429 30.446,-18.504c10.254,-5.988 20.517,-11.967 30.938,-17.675l15.641,-8.538c5.296,-2.717 10.513,-5.554 15.871,-8.158c-4.879,3.416 -9.891,6.608 -14.833,9.921l-15.05,9.541c-10.038,6.354 -20.242,12.429 -30.45,18.496c-10.258,5.983 -20.517,11.963 -30.942,17.663c-10.404,5.741 -20.833,11.42 -31.504,16.712" style="fill:#1a2e35;fill-rule:nonzero;"/><path d="M1328,1505.93c14.025,7.991 27.321,17.008 40.433,26.283c13.042,9.371 25.9,19 38.021,29.671c-14.033,-7.984 -27.325,-17.004 -40.437,-26.284c-13.038,-9.379 -25.896,-19.012 -38.017,-29.67" style="fill:#1a2e35;fill-rule:nonzero;"/><path d="M1351.04,1493.94c10.825,3.288 21.483,7.004 32.116,10.783c10.65,3.734 21.179,7.775 31.713,11.817c10.496,4.133 20.983,8.275 31.362,12.717l15.559,6.675c5.129,2.366 10.312,4.604 15.395,7.087c-5.425,-1.604 -10.758,-3.462 -16.137,-5.183l-15.979,-5.596c-10.646,-3.733 -21.184,-7.775 -31.709,-11.821c-10.495,-4.141 -20.987,-8.279 -31.358,-12.721c-10.392,-4.404 -20.762,-8.866 -30.962,-13.758" style="fill:#1a2e35;fill-rule:nonzero;"/><path d="M1381.79,1417.57c10.375,-2.696 20.829,-4.946 31.296,-7.121c10.454,-2.225 20.967,-4.129 31.479,-6.029c10.534,-1.804 21.063,-3.6 31.65,-5.079l15.888,-2.2c5.321,-0.583 10.612,-1.312 15.962,-1.771c-5.183,1.392 -10.408,2.517 -15.608,3.784l-15.683,3.345c-10.459,2.221 -20.971,4.125 -31.488,6.021c-10.529,1.8 -21.058,3.596 -31.65,5.071c-10.579,1.521 -21.171,2.975 -31.846,3.979" style="fill:#1a2e35;fill-rule:nonzero;"/></g><g id="Gears"><path d="M1131.76,1482.45c1.758,-8.429 4.587,-16.646 8.246,-24.475c3.662,-7.825 8.145,-15.333 13.766,-22c5.646,-6.6 12.588,-12.425 20.942,-15.646c8.35,-3.112 17.917,-3.087 26.296,0.255c8.479,3.304 15.166,10.433 18.771,18.62c1.866,4.096 3.041,8.48 3.525,12.967c0.42,4.483 0.241,9.142 -1.542,13.613c-0.908,2.2 -2.329,4.425 -4.604,5.9c-1.104,0.77 -2.446,1.204 -3.767,1.408c-1.304,0.187 -2.633,0.129 -4.15,-0.396c-2.787,-1.183 -4.183,-3.429 -5.379,-5.446c-1.071,-2.1 -1.9,-4.25 -2.463,-6.421c-2.341,-8.695 -2.579,-17.545 -2.166,-26.291c1.241,-17.421 5.816,-34.842 15.204,-49.838c4.737,-7.404 10.679,-14.225 18.067,-19.208c7.291,-5.017 15.829,-8.471 24.541,-9.471c4.292,-1.042 8.717,-0.937 13.1,-1.154c2.192,-0.233 4.375,0.296 6.559,0.412c2.175,0.292 4.395,0.25 6.512,0.88c8.654,1.554 16.796,5.029 24.392,9.233c7.554,4.354 14.283,9.946 20.421,16.012c6.091,6.13 11.629,12.834 16.079,20.217c-9.854,-14.062 -22.546,-26.271 -37.504,-34.45c-7.53,-3.908 -15.484,-7.121 -23.863,-8.421c-2.042,-0.571 -4.192,-0.475 -6.279,-0.704c-2.104,-0.062 -4.2,-0.542 -6.308,-0.262c-4.209,0.308 -8.442,0.287 -12.542,1.391c-8.404,1.184 -16.192,4.563 -23.05,9.271c-6.888,4.717 -12.45,11.188 -16.917,18.271c-8.846,14.329 -13.175,31.254 -14.258,48.075c-0.471,8.4 -0.258,16.996 1.842,24.979c1.004,3.817 2.808,8.117 5.433,9.321c0.342,0.029 0.562,0.212 0.971,0.225c0.412,-0.033 0.846,0.054 1.233,-0.042c0.788,-0.129 1.563,-0.346 2.225,-0.816c1.367,-0.859 2.45,-2.388 3.179,-4.138c1.459,-3.537 1.729,-7.737 1.359,-11.787c-0.409,-4.067 -1.45,-8.109 -3.134,-11.859c-3.296,-7.491 -9.141,-13.971 -16.716,-17.146c-7.534,-3.195 -16.359,-3.458 -24.175,-0.733c-7.859,2.817 -14.646,8.238 -20.309,14.517c-11.337,12.704 -18.987,28.6 -23.537,45.137" style="fill:#1a2e35;fill-rule:nonzero;"/><path d="M746.739,1590.43c4.021,-7.575 9.933,-14.138 16.841,-19.321c6.892,-5.184 14.813,-9.204 23.334,-11.171c8.471,-2.033 17.575,-2.067 26.054,0.508c8.483,2.538 16.125,7.513 22.242,13.85c6.158,6.329 10.758,14.025 13.925,22.204c3.104,8.196 4.966,16.975 4.308,25.959c-0.45,4.412 -1.342,9.183 -4.838,13.004c-1.733,1.879 -4.408,3.121 -7.016,3.158c-2.509,-0.021 -4.884,-0.391 -7.184,-1.621c-2.283,-1.175 -4.12,-3.229 -5.166,-5.5c-1.063,-2.266 -1.459,-4.675 -1.567,-6.995c-0.162,-4.667 0.842,-9.1 2.217,-13.317c2.791,-8.446 7.387,-16.054 12.754,-22.95c5.396,-6.892 11.746,-13.021 18.858,-18.129c14.121,-10.254 32.1,-15.946 49.646,-13.65c8.658,1.171 17.25,3.671 24.829,8.083c7.646,4.275 14.271,10.2 19.679,16.975c5.4,6.804 9.609,14.45 12.85,22.417c3.242,7.971 5.634,16.291 6.809,24.783c-3.5,-16.692 -10.367,-32.912 -21.304,-45.85c-5.417,-6.467 -11.946,-12.017 -19.355,-15.929c-7.35,-4.054 -15.587,-6.233 -23.883,-7.158c-16.667,-1.817 -33.575,3.5 -47.021,13.445c-13.429,9.88 -24.416,23.667 -29.971,39.263c-1.308,3.892 -2.225,7.954 -2.1,11.871c0.092,3.883 1.455,7.625 4.575,9.2c1.471,0.846 3.467,1.175 5.209,1.204c1.691,-0.046 3.191,-0.717 4.391,-1.967c2.434,-2.537 3.475,-6.687 3.846,-10.671c0.654,-8.141 -1.029,-16.558 -3.941,-24.337c-2.955,-7.8 -7.334,-15.079 -13,-21.163c-5.65,-6.075 -12.775,-10.82 -20.663,-13.395c-7.871,-2.621 -16.5,-2.842 -24.696,-1.1c-16.408,3.483 -31.612,13.741 -40.662,28.3" style="fill:#1a2e35;fill-rule:nonzero;"/><path d="M553.971,584.198c-0.471,-17.146 -4.108,-34.408 -12.087,-49.454c-4,-7.446 -9.296,-14.329 -16.254,-18.946c-6.946,-4.508 -15.575,-6.358 -23.655,-5.05c-8.112,1.271 -15.333,6.171 -20.325,12.658c-2.529,3.238 -4.508,6.913 -5.875,10.771c-1.32,3.842 -2.066,7.983 -1.491,11.771c0.287,1.875 0.975,3.612 2.1,4.771c0.533,0.621 1.229,1.012 1.966,1.325c0.355,0.187 0.796,0.208 1.188,0.333c0.396,0.088 0.658,-0.037 0.996,0.013c2.837,-0.542 5.616,-4.288 7.5,-7.755c3.946,-7.245 6.204,-15.545 7.75,-23.816c2.962,-16.588 2.796,-34.059 -2.375,-50.084c-2.642,-7.945 -6.5,-15.558 -12.067,-21.783c-5.533,-6.208 -12.292,-11.35 -20.167,-14.5c-3.725,-2.054 -7.837,-3.042 -11.85,-4.346c-1.979,-0.775 -4.125,-0.812 -6.187,-1.254c-2.088,-0.275 -4.146,-0.879 -6.267,-0.817c-8.446,-0.733 -16.941,0.488 -25.183,2.488c-16.479,4.371 -31.713,13.196 -44.638,24.5c6.08,-6.104 13.055,-11.296 20.434,-15.792c7.412,-4.425 15.279,-8.25 23.654,-10.675c8.379,-2.271 17.117,-3.704 25.896,-3.146c2.2,-0.108 4.35,0.459 6.525,0.7c2.154,0.409 4.396,0.413 6.475,1.163c4.2,1.254 8.525,2.217 12.441,4.246c8.225,3.054 15.692,8.446 21.575,15.054c5.984,6.604 10.125,14.646 12.959,22.967c5.537,16.8 5.825,34.812 2.871,52.029c-1.688,8.587 -4.03,17.125 -8.38,25.008c-1.066,1.975 -2.379,3.867 -3.92,5.65c-1.646,1.675 -3.538,3.521 -6.525,4.008c-1.6,0.146 -2.909,-0.116 -4.125,-0.608c-1.238,-0.512 -2.438,-1.258 -3.321,-2.267c-1.854,-1.975 -2.709,-4.475 -3.063,-6.829c-0.666,-4.766 0.271,-9.333 1.75,-13.583c1.538,-4.242 3.725,-8.221 6.517,-11.75c5.454,-7.096 13.65,-12.417 22.671,-13.604c8.937,-1.25 18.229,1.008 25.6,6.029c7.346,5.121 12.696,12.429 16.6,20.187c3.866,7.821 6.429,16.18 8.121,24.65c1.683,8.475 2.47,17.134 2.166,25.738" style="fill:#1a2e35;fill-rule:nonzero;"/><path d="M1474.04,801.546c-16.784,-3.546 -34.421,-4.033 -50.913,0.217c-8.175,2.146 -16.104,5.692 -22.212,11.383c-6.004,5.7 -9.817,13.659 -10.434,21.821c-0.654,8.183 2.421,16.35 7.571,22.717c2.559,3.216 5.667,5.996 9.096,8.225c3.433,2.183 7.283,3.871 11.1,4.2c1.888,0.154 3.742,-0.109 5.133,-0.929c0.725,-0.371 1.267,-0.963 1.746,-1.605c0.263,-0.3 0.388,-0.729 0.6,-1.075c0.175,-0.366 0.121,-0.65 0.246,-0.966c0.133,-2.884 -2.858,-6.463 -5.792,-9.104c-6.125,-5.525 -13.666,-9.659 -21.35,-13.092c-15.437,-6.75 -32.47,-10.667 -49.258,-9.379c-8.342,0.716 -16.642,2.691 -23.996,6.65c-7.329,3.937 -13.904,9.308 -18.808,16.233c-2.863,3.138 -4.783,6.908 -6.988,10.504c-1.216,1.746 -1.75,3.825 -2.662,5.725c-0.754,1.967 -1.821,3.825 -2.258,5.904c-2.684,8.042 -3.48,16.584 -3.459,25.067c0.409,17.042 5.434,33.917 13.413,49.125c-4.521,-7.342 -7.942,-15.337 -10.592,-23.554c-2.571,-8.242 -4.458,-16.783 -4.858,-25.496c-0.254,-8.679 0.387,-17.508 2.983,-25.912c0.408,-2.167 1.463,-4.121 2.204,-6.184c0.896,-1.996 1.429,-4.179 2.642,-6.021c2.196,-3.791 4.142,-7.775 7.029,-11.108c4.888,-7.287 11.875,-13.287 19.675,-17.467c7.817,-4.279 16.6,-6.429 25.358,-7.245c17.625,-1.463 35.209,2.462 51.259,9.35c7.962,3.645 15.712,7.916 22.366,13.983c1.671,1.496 3.2,3.217 4.575,5.133c1.246,1.988 2.596,4.259 2.38,7.279c-0.234,1.592 -0.796,2.8 -1.555,3.871c-0.791,1.079 -1.795,2.075 -2.979,2.7c-2.358,1.342 -4.987,1.588 -7.354,1.384c-4.792,-0.463 -9.017,-2.442 -12.804,-4.871c-3.767,-2.488 -7.125,-5.542 -9.904,-9.084c-5.629,-6.958 -8.892,-16.166 -7.938,-25.216c0.871,-8.979 5.234,-17.492 11.834,-23.488c6.691,-5.946 15.05,-9.441 23.504,-11.429c8.508,-1.937 17.233,-2.479 25.862,-2.146c8.638,0.342 17.238,1.596 25.538,3.9" style="fill:#1a2e35;fill-rule:nonzero;"/><path d="M1216.08,531.964c-2.85,-9.875 -3.233,-20.429 -1.629,-30.629c1.596,-10.192 5.054,-20.225 10.696,-29.008c5.558,-8.792 13.312,-16.396 22.691,-21.242c9.354,-4.883 20.013,-7.004 30.504,-6.683c10.525,0.287 20.863,3.008 30.38,7.354c9.483,4.404 18.391,10.354 25.287,18.537c3.292,4.121 6.463,8.921 6.654,14.959c0.084,2.975 -1.125,6.162 -3.262,8.316c-2.117,2.025 -4.425,3.671 -7.342,4.517c-2.862,0.879 -6.054,0.663 -8.783,-0.379c-2.746,-1.033 -5.059,-2.729 -7.063,-4.604c-3.996,-3.813 -6.829,-8.417 -9.162,-13.15c-4.642,-9.525 -7.084,-19.846 -8.259,-30.209c-1.145,-10.379 -0.85,-20.912 0.959,-31.212c3.479,-20.529 14.066,-40.363 30.916,-53.058c8.359,-6.238 17.763,-11.288 27.913,-13.863c10.083,-2.754 20.692,-3.242 30.971,-1.987c10.304,1.275 20.304,4.262 29.758,8.341c9.45,4.084 18.479,9.171 26.625,15.421c-16.925,-11.45 -36.379,-19.65 -56.612,-21.65c-10.075,-1.025 -20.35,-0.333 -30.013,2.513c-9.729,2.666 -18.658,7.704 -26.583,13.858c-7.834,6.271 -14.5,13.983 -19.375,22.754c-4.909,8.75 -8.121,18.421 -9.817,28.333c-3.246,19.78 -1.154,40.855 7.204,58.967c2.154,4.454 4.796,8.733 8.234,12.038c3.375,3.295 7.833,5.45 12.004,4.129c2.05,-0.538 4.066,-1.946 5.637,-3.438c1.479,-1.512 2.242,-3.466 2.221,-5.625c-0.054,-4.375 -2.692,-8.837 -5.733,-12.587c-6.309,-7.584 -14.838,-13.4 -23.892,-17.642c-9.1,-4.221 -18.992,-6.8 -28.987,-7.254c-9.98,-0.459 -20.109,1.462 -29.063,5.9c-8.975,4.396 -16.567,11.479 -22.129,19.871c-11.125,16.812 -15.483,38.383 -10.95,58.412" style="fill:#1a2e35;fill-rule:nonzero;"/><path d="M742.318,1612.91c-2.584,8.204 -11.317,12.758 -19.513,10.171c-8.192,-2.584 -12.742,-11.313 -10.158,-19.517c2.583,-8.196 11.312,-12.746 19.516,-10.162c8.188,2.583 12.738,11.312 10.155,19.508m-9.509,-21.571c-9.337,-2.946 -19.283,2.242 -22.225,11.575c-2.946,9.346 2.242,19.283 11.579,22.225c9.33,2.942 19.267,-2.242 22.209,-11.575c2.941,-9.329 -2.234,-19.287 -11.563,-22.225m9.509,21.571c-2.584,8.204 -11.317,12.758 -19.513,10.171c-8.192,-2.584 -12.742,-11.313 -10.158,-19.517c2.583,-8.196 11.312,-12.746 19.516,-10.162c8.188,2.583 12.738,11.312 10.155,19.508m-9.509,-21.571c-9.337,-2.946 -19.283,2.242 -22.225,11.575c-2.946,9.346 2.242,19.283 11.579,22.225c9.33,2.942 19.267,-2.242 22.209,-11.575c2.941,-9.329 -2.234,-19.287 -11.563,-22.225m9.509,21.571c-2.584,8.204 -11.317,12.758 -19.513,10.171c-8.192,-2.584 -12.742,-11.313 -10.158,-19.517c2.583,-8.196 11.312,-12.746 19.516,-10.162c8.188,2.583 12.738,11.312 10.155,19.508m2.054,0.654c2.941,-9.329 -2.234,-19.287 -11.563,-22.225c-9.337,-2.946 -19.283,2.242 -22.225,11.575c-2.946,9.346 2.242,19.283 11.579,22.225c9.33,2.942 19.267,-2.242 22.209,-11.575m2.633,0.821c-3.396,10.771 -14.908,16.775 -25.675,13.383c-10.762,-3.391 -16.767,-14.908 -13.371,-25.679c3.396,-10.775 14.917,-16.762 25.679,-13.371c10.759,3.392 16.759,14.904 13.367,25.667m-8.292,-41.763c-19.683,-6.2 -40.65,4.738 -46.85,24.396c-6.195,19.663 4.717,40.642 24.396,46.838c19.659,6.191 40.638,-4.729 46.834,-24.4c6.2,-19.654 -4.717,-40.646 -24.38,-46.834m3.605,40.288c-2.584,8.204 -11.317,12.758 -19.513,10.171c-8.192,-2.584 -12.742,-11.313 -10.158,-19.517c2.583,-8.196 11.312,-12.746 19.516,-10.162c8.188,2.583 12.738,11.312 10.155,19.508m-9.509,-21.571c-9.337,-2.946 -19.283,2.242 -22.225,11.575c-2.946,9.346 2.242,19.283 11.579,22.225c9.33,2.942 19.267,-2.242 22.209,-11.575c2.941,-9.329 -2.234,-19.287 -11.563,-22.225m9.509,21.571c-2.584,8.204 -11.317,12.758 -19.513,10.171c-8.192,-2.584 -12.742,-11.313 -10.158,-19.517c2.583,-8.196 11.312,-12.746 19.516,-10.162c8.188,2.583 12.738,11.312 10.155,19.508m-9.509,-21.571c-9.337,-2.946 -19.283,2.242 -22.225,11.575c-2.946,9.346 2.242,19.283 11.579,22.225c9.33,2.942 19.267,-2.242 22.209,-11.575c2.941,-9.329 -2.234,-19.287 -11.563,-22.225m9.509,21.571c-2.584,8.204 -11.317,12.758 -19.513,10.171c-8.192,-2.584 -12.742,-11.313 -10.158,-19.517c2.583,-8.196 11.312,-12.746 19.516,-10.162c8.188,2.583 12.738,11.312 10.155,19.508m-9.509,-21.571c-9.337,-2.946 -19.283,2.242 -22.225,11.575c-2.946,9.346 2.242,19.283 11.579,22.225c9.33,2.942 19.267,-2.242 22.209,-11.575c2.941,-9.329 -2.234,-19.287 -11.563,-22.225" style="fill:#375a64;fill-rule:nonzero;"/><path d="M723.572,1644.54l-13.696,-4.316l-2.296,9.933l12.179,3.842l3.813,-9.459Z" style="fill:#375a64;fill-rule:nonzero;"/><path d="M698.958,1631.71l-6.633,-12.734l-8.646,5.396l5.9,11.329l9.379,-3.991Z" style="fill:#375a64;fill-rule:nonzero;"/><path d="M690.625,1605.23l4.317,-13.696l-9.934,-2.296l-3.841,12.179l9.458,3.813Z" style="fill:#375a64;fill-rule:nonzero;"/><path d="M703.453,1580.62l12.737,-6.633l-5.4,-8.646l-11.329,5.9l3.992,9.379Z" style="fill:#375a64;fill-rule:nonzero;"/><path d="M729.928,1572.29l13.695,4.317l2.296,-9.934l-12.179,-3.837l-3.813,9.454Z" style="fill:#375a64;fill-rule:nonzero;"/><path d="M754.539,1585.12l6.634,12.738l8.645,-5.4l-5.895,-11.329l-9.384,3.991Z" style="fill:#375a64;fill-rule:nonzero;"/><path d="M762.873,1611.59l-4.317,13.696l9.933,2.296l3.842,-12.179l-9.458,-3.813Z" style="fill:#375a64;fill-rule:nonzero;"/><path d="M750.045,1636.2l-12.734,6.633l5.396,8.646l11.329,-5.896l-3.991,-9.383Z" style="fill:#375a64;fill-rule:nonzero;"/><path d="M1399.21,1454.16c-8.779,11.83 -25.466,14.3 -37.287,5.525c-11.829,-8.775 -14.3,-25.466 -5.517,-37.295c8.767,-11.821 25.459,-14.292 37.288,-5.509c11.821,8.771 14.287,25.458 5.516,37.279m24.43,18.134c18.783,-25.313 13.491,-61.063 -11.817,-79.846c-25.317,-18.788 -61.071,-13.496 -79.85,11.808c-18.788,25.321 -13.496,61.075 11.817,79.859c25.308,18.783 61.062,13.495 79.85,-11.821" style="fill:#1a2e35;fill-rule:nonzero;"/><path d="M1354.01,1488.75l-17.621,-13.083l-8.287,13.2l15.675,11.633l10.233,-11.75Z" style="fill:#1a2e35;fill-rule:nonzero;"/><path d="M1324.87,1457.91l-3.213,-21.712l-15.191,3.475l2.858,19.312l15.546,-1.075Z" style="fill:#1a2e35;fill-rule:nonzero;"/><path d="M1326.07,1415.5l13.079,-17.621l-13.2,-8.287l-11.633,15.675l11.754,10.233Z" style="fill:#1a2e35;fill-rule:nonzero;"/><path d="M1356.9,1386.37l21.713,-3.213l-3.475,-15.192l-19.313,2.859l1.075,15.546Z" style="fill:#1a2e35;fill-rule:nonzero;"/><path d="M1399.32,1387.57l17.621,13.079l8.288,-13.196l-15.675,-11.637l-10.234,11.754Z" style="fill:#1a2e35;fill-rule:nonzero;"/><path d="M1428.45,1418.4l3.212,21.713l15.192,-3.476l-2.859,-19.312l-15.545,1.075Z" style="fill:#1a2e35;fill-rule:nonzero;"/><path d="M1427.26,1460.81l-13.083,17.625l13.2,8.288l11.633,-15.679l-11.75,-10.234Z" style="fill:#1a2e35;fill-rule:nonzero;"/><path d="M1396.42,1489.94l-21.708,3.213l3.475,15.196l19.312,-2.863l-1.079,-15.546Z" style="fill:#1a2e35;fill-rule:nonzero;"/><path d="M1380.35,1433.19c2.75,2.041 3.321,5.908 1.283,8.654c-2.037,2.741 -5.904,3.325 -8.658,1.283c-2.738,-2.033 -3.309,-5.917 -1.28,-8.654c2.042,-2.754 5.917,-3.313 8.655,-1.283m-22.988,7.825l12.129,15.291l19.305,-2.866l7.166,-18.138l-12.112,-15.283l-19.313,2.846l-7.175,18.15Z" style="fill:#1a2e35;fill-rule:nonzero;"/><path d="M1474.75,379.712c-2.263,7.179 -9.904,11.158 -17.075,8.9c-7.167,-2.258 -11.15,-9.9 -8.888,-17.079c2.263,-7.171 9.9,-11.15 17.075,-8.892c7.167,2.259 11.146,9.9 8.888,17.071m-8.321,-18.875c-8.171,-2.575 -16.875,1.958 -19.446,10.125c-2.579,8.179 1.963,16.875 10.133,19.45c8.163,2.575 16.854,-1.958 19.434,-10.129c2.571,-8.163 -1.959,-16.875 -10.121,-19.446m8.321,18.875c-2.263,7.179 -9.904,11.158 -17.075,8.9c-7.167,-2.258 -11.15,-9.9 -8.888,-17.079c2.263,-7.171 9.9,-11.15 17.075,-8.892c7.167,2.259 11.146,9.9 8.888,17.071m-8.321,-18.875c-8.171,-2.575 -16.875,1.958 -19.446,10.125c-2.579,8.179 1.963,16.875 10.133,19.45c8.163,2.575 16.854,-1.958 19.434,-10.129c2.571,-8.163 -1.959,-16.875 -10.121,-19.446m8.321,18.875c-2.263,7.179 -9.904,11.158 -17.075,8.9c-7.167,-2.258 -11.15,-9.9 -8.888,-17.079c2.263,-7.171 9.9,-11.15 17.075,-8.892c7.167,2.259 11.146,9.9 8.888,17.071m1.8,0.571c2.571,-8.163 -1.959,-16.875 -10.121,-19.446c-8.171,-2.575 -16.875,1.958 -19.446,10.125c-2.579,8.179 1.963,16.875 10.133,19.45c8.163,2.575 16.855,-1.958 19.434,-10.129m2.3,0.721c-2.971,9.425 -13.042,14.679 -22.463,11.708c-9.421,-2.967 -14.675,-13.042 -11.704,-22.471c2.971,-9.425 13.054,-14.666 22.475,-11.7c9.413,2.967 14.658,13.042 11.692,22.463m-7.254,-36.546c-17.23,-5.425 -35.571,4.142 -40.996,21.346c-5.417,17.208 4.133,35.562 21.346,40.987c17.204,5.417 35.562,-4.141 40.979,-21.35c5.429,-17.2 -4.125,-35.566 -21.329,-40.983m3.154,35.254c-2.263,7.179 -9.904,11.158 -17.075,8.9c-7.167,-2.258 -11.15,-9.9 -8.888,-17.079c2.263,-7.171 9.9,-11.15 17.075,-8.892c7.167,2.259 11.146,9.9 8.888,17.071m-8.321,-18.875c-8.171,-2.575 -16.875,1.958 -19.446,10.125c-2.579,8.179 1.963,16.875 10.133,19.45c8.163,2.575 16.854,-1.958 19.434,-10.129c2.571,-8.163 -1.959,-16.875 -10.121,-19.446m8.321,18.875c-2.263,7.179 -9.904,11.158 -17.075,8.9c-7.167,-2.258 -11.15,-9.9 -8.888,-17.079c2.263,-7.171 9.9,-11.15 17.075,-8.892c7.167,2.259 11.146,9.9 8.888,17.071m-8.321,-18.875c-8.171,-2.575 -16.875,1.958 -19.446,10.125c-2.579,8.179 1.963,16.875 10.133,19.45c8.163,2.575 16.854,-1.958 19.434,-10.129c2.571,-8.163 -1.959,-16.875 -10.121,-19.446m8.321,18.875c-2.263,7.179 -9.904,11.158 -17.075,8.9c-7.167,-2.258 -11.15,-9.9 -8.888,-17.079c2.263,-7.171 9.9,-11.15 17.075,-8.892c7.167,2.259 11.146,9.9 8.888,17.071m-8.321,-18.875c-8.171,-2.575 -16.875,1.958 -19.446,10.125c-2.579,8.179 1.963,16.875 10.133,19.45c8.163,2.575 16.854,-1.958 19.434,-10.129c2.571,-8.163 -1.959,-16.875 -10.121,-19.446" style="fill:#1a2e35;fill-rule:nonzero;"/><path d="M1458.35,407.383l-11.983,-3.775l-2.008,8.692l10.658,3.358l3.333,-8.275Z" style="fill:#1a2e35;fill-rule:nonzero;"/><path d="M1436.81,396.159l-5.804,-11.146l-7.566,4.725l5.162,9.912l8.208,-3.491Z" style="fill:#1a2e35;fill-rule:nonzero;"/><path d="M1429.52,372.992l3.775,-11.983l-8.692,-2.009l-3.354,10.659l8.271,3.333Z" style="fill:#1a2e35;fill-rule:nonzero;"/><path d="M1440.74,351.455l11.146,-5.805l-4.725,-7.566l-9.913,5.162l3.492,8.209Z" style="fill:#1a2e35;fill-rule:nonzero;"/><path d="M1463.91,344.163l11.983,3.775l2.009,-8.692l-10.655,-3.358l-3.337,8.275Z" style="fill:#1a2e35;fill-rule:nonzero;"/><path d="M1485.44,355.388l5.804,11.145l7.567,-4.725l-5.158,-9.912l-8.213,3.492Z" style="fill:#1a2e35;fill-rule:nonzero;"/><path d="M1492.74,378.554l-3.775,11.983l8.691,2.009l3.359,-10.659l-8.275,-3.333Z" style="fill:#1a2e35;fill-rule:nonzero;"/><path d="M1481.52,400.092l-11.146,5.804l4.725,7.567l9.912,-5.163l-3.491,-8.208Z" style="fill:#1a2e35;fill-rule:nonzero;"/><path d="M1315.52,974.984c-2.262,7.179 -9.904,11.158 -17.075,8.9c-7.166,-2.263 -11.15,-9.9 -8.887,-17.079c2.262,-7.171 9.9,-11.155 17.075,-8.892c7.166,2.258 11.146,9.9 8.887,17.071m-8.321,-18.875c-8.17,-2.575 -16.875,1.958 -19.45,10.121c-2.575,8.179 1.967,16.879 10.138,19.454c8.162,2.575 16.854,-1.959 19.433,-10.129c2.571,-8.163 -1.958,-16.875 -10.121,-19.446m8.321,18.875c-2.262,7.179 -9.904,11.158 -17.075,8.9c-7.166,-2.263 -11.15,-9.9 -8.887,-17.079c2.262,-7.171 9.9,-11.155 17.075,-8.892c7.166,2.258 11.146,9.9 8.887,17.071m-8.321,-18.875c-8.17,-2.575 -16.875,1.958 -19.45,10.121c-2.575,8.179 1.967,16.879 10.138,19.454c8.162,2.575 16.854,-1.959 19.433,-10.129c2.571,-8.163 -1.958,-16.875 -10.121,-19.446m8.321,18.875c-2.262,7.179 -9.904,11.158 -17.075,8.9c-7.166,-2.263 -11.15,-9.9 -8.887,-17.079c2.262,-7.171 9.9,-11.155 17.075,-8.892c7.166,2.258 11.146,9.9 8.887,17.071m1.8,0.571c2.571,-8.163 -1.958,-16.875 -10.121,-19.446c-8.17,-2.575 -16.875,1.958 -19.45,10.121c-2.575,8.179 1.967,16.879 10.138,19.454c8.162,2.575 16.854,-1.959 19.433,-10.129m2.3,0.72c-2.971,9.425 -13.046,14.68 -22.462,11.709c-9.421,-2.967 -14.675,-13.042 -11.704,-22.471c2.97,-9.425 13.054,-14.667 22.475,-11.7c9.412,2.967 14.658,13.042 11.691,22.462m-7.254,-36.545c-17.229,-5.425 -35.571,4.141 -40.996,21.345c-5.421,17.209 4.129,35.563 21.346,40.988c17.204,5.417 35.563,-4.142 40.979,-21.35c5.429,-17.2 -4.129,-35.567 -21.329,-40.983m3.154,35.254c-2.262,7.179 -9.904,11.158 -17.075,8.9c-7.166,-2.263 -11.15,-9.9 -8.887,-17.079c2.262,-7.171 9.9,-11.155 17.075,-8.892c7.166,2.258 11.146,9.9 8.887,17.071m-8.321,-18.875c-8.17,-2.575 -16.875,1.958 -19.45,10.121c-2.575,8.179 1.967,16.879 10.138,19.454c8.162,2.575 16.854,-1.959 19.433,-10.129c2.571,-8.163 -1.958,-16.875 -10.121,-19.446m8.321,18.875c-2.262,7.179 -9.904,11.158 -17.075,8.9c-7.166,-2.263 -11.15,-9.9 -8.887,-17.079c2.262,-7.171 9.9,-11.155 17.075,-8.892c7.166,2.258 11.146,9.9 8.887,17.071m-8.321,-18.875c-8.17,-2.575 -16.875,1.958 -19.45,10.121c-2.575,8.179 1.967,16.879 10.138,19.454c8.162,2.575 16.854,-1.959 19.433,-10.129c2.571,-8.163 -1.958,-16.875 -10.121,-19.446m8.321,18.875c-2.262,7.179 -9.904,11.158 -17.075,8.9c-7.166,-2.263 -11.15,-9.9 -8.887,-17.079c2.262,-7.171 9.9,-11.155 17.075,-8.892c7.166,2.258 11.146,9.9 8.887,17.071m-8.321,-18.875c-8.17,-2.575 -16.875,1.958 -19.45,10.121c-2.575,8.179 1.967,16.879 10.138,19.454c8.162,2.575 16.854,-1.959 19.433,-10.129c2.571,-8.163 -1.958,-16.875 -10.121,-19.446" style="fill:#1a2e35;fill-rule:nonzero;"/><path d="M1299.11,1002.65l-11.983,-3.775l-2.009,8.692l10.659,3.354l3.333,-8.271Z" style="fill:#1a2e35;fill-rule:nonzero;"/><path d="M1277.58,991.431l-5.804,-11.146l-7.567,4.725l5.163,9.913l8.208,-3.492Z" style="fill:#1a2e35;fill-rule:nonzero;"/><path d="M1270.28,968.264l3.775,-11.984l-8.692,-2.008l-3.354,10.654l8.271,3.338Z" style="fill:#1a2e35;fill-rule:nonzero;"/><path d="M1281.51,946.727l11.142,-5.804l-4.725,-7.567l-9.908,5.162l3.491,8.209Z" style="fill:#1a2e35;fill-rule:nonzero;"/><path d="M1304.67,939.435l11.984,3.775l2.008,-8.692l-10.654,-3.358l-3.338,8.275Z" style="fill:#1a2e35;fill-rule:nonzero;"/><path d="M1326.21,950.659l5.805,11.146l7.566,-4.725l-5.158,-9.913l-8.213,3.492Z" style="fill:#1a2e35;fill-rule:nonzero;"/><path d="M1333.5,973.826l-3.775,11.984l8.692,2.008l3.358,-10.658l-8.275,-3.334Z" style="fill:#1a2e35;fill-rule:nonzero;"/><path d="M1322.28,995.363l-11.146,5.804l4.725,7.567l9.913,-5.162l-3.492,-8.209Z" style="fill:#1a2e35;fill-rule:nonzero;"/><path d="M370.471,481.27c-3.004,12.325 -15.412,19.875 -27.729,16.871c-12.325,-3 -19.871,-15.412 -16.871,-27.737c3,-12.313 15.413,-19.863 27.738,-16.859c12.312,3 19.862,15.409 16.862,27.725m25.45,6.2c6.425,-26.362 -9.746,-52.954 -36.112,-59.379c-26.375,-6.425 -52.967,9.746 -59.388,36.113c-6.425,26.375 9.742,52.966 36.121,59.391c26.367,6.425 52.954,-9.75 59.379,-36.125" style="fill:#1a2e35;fill-rule:nonzero;"/><path d="M346.2,523.846l-18.363,-4.475l-2.15,13.246l16.333,3.979l4.18,-12.75Z" style="fill:#1a2e35;fill-rule:nonzero;"/><path d="M312.758,509.145l-9.82,-16.146l-10.888,7.842l8.733,14.362l11.975,-6.058Z" style="fill:#1a2e35;fill-rule:nonzero;"/><path d="M299.505,475.102l4.475,-18.363l-13.245,-2.15l-3.98,16.329l12.75,4.184Z" style="fill:#1a2e35;fill-rule:nonzero;"/><path d="M314.207,441.658l16.146,-9.82l-7.842,-10.888l-14.362,8.733l6.058,11.975Z" style="fill:#1a2e35;fill-rule:nonzero;"/><path d="M348.25,428.408l18.363,4.475l2.15,-13.246l-16.329,-3.979l-4.184,12.75Z" style="fill:#1a2e35;fill-rule:nonzero;"/><path d="M381.693,443.109l9.821,16.146l10.888,-7.842l-8.734,-14.362l-11.975,6.058Z" style="fill:#1a2e35;fill-rule:nonzero;"/><path d="M394.946,477.153l-4.475,18.362l13.246,2.15l3.979,-16.329l-12.75,-4.183Z" style="fill:#1a2e35;fill-rule:nonzero;"/><path d="M380.243,510.596l-16.146,9.821l7.842,10.887l14.362,-8.733l-6.058,-11.975Z" style="fill:#1a2e35;fill-rule:nonzero;"/><path d="M348.484,470.953c2.863,0.696 4.613,3.571 3.913,6.438c-0.696,2.85 -3.571,4.612 -6.434,3.912c-2.858,-0.695 -4.612,-3.579 -3.916,-6.437c0.7,-2.863 3.583,-4.608 6.437,-3.913m-15.616,13.905l14.741,8.07l14.354,-8.741l-0.387,-16.788l-14.729,-8.066l-14.363,8.725l0.384,16.8Z" style="fill:#1a2e35;fill-rule:nonzero;"/></g><g id="Speech-Bubble" serif:id="Speech Bubble"><path d="M1506.62,995.577c-11.208,-17.071 -17.508,-36.262 -17.508,-56.554c-0,-71.65 78.679,-129.746 175.675,-129.746c96.996,0 175.6,58.096 175.6,129.746c-0,71.646 -78.604,129.737 -175.6,129.737c-47.033,0 -89.671,-13.625 -121.171,-35.895l-60.517,15.387l23.521,-52.675Z" style="fill:#fff;fill-rule:nonzero;"/><path d="M1506.62,995.577l-23.1,52.863l-0.529,-0.63l60.388,-15.862l0.416,-0.113l0.371,0.255c31.154,21.512 68.738,32.704 106.35,34.716c18.85,1.167 37.804,-0.379 56.325,-3.725c18.496,-3.437 36.721,-8.933 53.571,-17.341c16.858,-8.309 32.567,-19.1 45.608,-32.555c13.021,-13.408 23.317,-29.629 28.517,-47.55c5.362,-17.866 4.85,-37.266 -0.688,-54.983c-5.5,-17.804 -16.029,-33.85 -29.225,-47.075c-13.216,-13.271 -29.037,-23.871 -45.975,-31.987c-4.316,-1.859 -8.508,-4.03 -12.929,-5.634l-13.296,-4.741l-13.629,-3.709c-4.546,-1.225 -9.233,-1.862 -13.837,-2.825c-18.563,-3.146 -37.5,-4.291 -56.334,-3.083c-18.808,1.333 -37.475,4.754 -55.42,10.571c-17.942,5.783 -35.15,14.075 -50.455,25.112c-15.308,10.971 -28.787,24.679 -38.512,40.854c-9.896,16.1 -14.838,35.034 -14.621,53.942c0.392,18.946 6.675,37.579 17.004,53.5m0,0c-10.575,-15.754 -17.204,-34.358 -17.9,-53.471c-0.521,-19.071 4.175,-38.371 13.971,-54.871c9.571,-16.629 23.221,-30.641 38.638,-41.92c15.433,-11.338 32.812,-19.896 50.95,-25.921c18.141,-6.059 37.045,-9.696 56.112,-11.221c19.096,-1.396 38.325,-0.208 57.196,2.908c4.683,0.963 9.446,1.604 14.075,2.834l13.875,3.733l13.554,4.787c4.508,1.625 8.792,3.821 13.196,5.705c17.304,8.229 33.525,19.012 47.162,32.625c13.609,13.558 24.584,30.125 30.367,48.662c5.779,18.467 6.2,38.746 0.579,57.321c-5.471,18.637 -16.191,35.375 -29.612,49.112c-13.454,13.792 -29.546,24.767 -46.759,33.184c-17.208,8.516 -35.75,14.062 -54.554,17.479c-18.833,3.233 -38.058,4.621 -57.133,3.271c-19.071,-1.204 -38.021,-4.688 -56.167,-10.679c-18.133,-5.971 -35.575,-14.309 -51.104,-25.475l0.783,0.145l-60.633,14.909l-0.921,0.225l0.392,-0.854l23.933,-52.488Z" style="fill:#1a2e35;fill-rule:nonzero;"/><path d="M1574.42,960.264l0,9.646l-39.312,0l-0,-56.612l38.595,-0l0,9.645l-27.587,0l-0,13.638l23.842,-0l-0,8.929l-23.842,0l-0,14.754l28.304,0Z" style="fill:#1a2e35;fill-rule:nonzero;"/><path d="M1594.04,941.284l13.796,0c1.008,0 1.95,-0.237 2.825,-0.716c0.879,-0.48 1.637,-1.13 2.275,-1.955c0.637,-0.82 1.146,-1.791 1.512,-2.908c0.375,-1.117 0.563,-2.317 0.563,-3.592c-0,-1.329 -0.217,-2.55 -0.638,-3.666c-0.429,-1.117 -0.996,-2.088 -1.716,-2.909c-0.717,-0.825 -1.542,-1.462 -2.471,-1.916c-0.934,-0.45 -1.875,-0.675 -2.834,-0.675l-13.312,-0l-0,18.337Zm-11.008,28.629l-0,-56.616l25.041,-0c2.604,-0 5.009,0.546 7.217,1.633c2.204,1.092 4.104,2.525 5.7,4.304c1.596,1.784 2.842,3.804 3.746,6.063c0.904,2.262 1.354,4.533 1.354,6.816c-0,3.671 -0.913,7.005 -2.75,10.009c-1.829,3.004 -4.317,5.171 -7.454,6.5l12.921,21.291l-12.363,0l-11.558,-18.979l-10.846,0l-0,18.979l-11.008,0Z" style="fill:#1a2e35;fill-rule:nonzero;"/><path d="M1647.07,941.284l13.796,0c1.008,0 1.95,-0.237 2.825,-0.716c0.879,-0.48 1.638,-1.13 2.275,-1.955c0.638,-0.82 1.146,-1.791 1.513,-2.908c0.375,-1.117 0.562,-2.317 0.562,-3.592c0,-1.329 -0.217,-2.55 -0.637,-3.666c-0.43,-1.117 -0.996,-2.088 -1.717,-2.909c-0.717,-0.825 -1.542,-1.462 -2.471,-1.916c-0.933,-0.45 -1.875,-0.675 -2.833,-0.675l-13.313,-0l0,18.337Zm-11.008,28.629l-0,-56.616l25.042,-0c2.604,-0 5.008,0.546 7.216,1.633c2.204,1.092 4.104,2.525 5.7,4.304c1.596,1.784 2.842,3.804 3.746,6.063c0.904,2.262 1.354,4.533 1.354,6.816c0,3.671 -0.912,7.005 -2.75,10.009c-1.829,3.004 -4.316,5.171 -7.454,6.5l12.921,21.291l-12.363,0l-11.558,-18.979l-10.846,0l0,18.979l-11.008,0Z" style="fill:#1a2e35;fill-rule:nonzero;"/><path d="M1696.82,941.604c0,2.446 0.371,4.812 1.117,7.096c0.741,2.287 1.821,4.308 3.229,6.062c1.408,1.754 3.137,3.163 5.183,4.225c2.046,1.063 4.371,1.596 6.979,1.596c2.659,-0 5.009,-0.546 7.055,-1.633c2.045,-1.092 3.775,-2.542 5.183,-4.346c1.408,-1.809 2.471,-3.842 3.192,-6.104c0.716,-2.259 1.075,-4.555 1.075,-6.896c-0,-2.442 -0.388,-4.809 -1.155,-7.096c-0.775,-2.283 -1.862,-4.308 -3.27,-6.063c-1.413,-1.754 -3.138,-3.15 -5.184,-4.183c-2.046,-1.037 -4.346,-1.558 -6.896,-1.558c-2.662,-0 -5.025,0.55 -7.095,1.637c-2.075,1.092 -3.805,2.525 -5.184,4.304c-1.383,1.784 -2.433,3.805 -3.15,6.063c-0.721,2.258 -1.079,4.558 -1.079,6.896m16.425,28.708c-4.146,0 -7.904,-0.812 -11.283,-2.433c-3.375,-1.621 -6.271,-3.775 -8.692,-6.459c-2.421,-2.683 -4.292,-5.754 -5.621,-9.212c-1.329,-3.454 -1.991,-6.988 -1.991,-10.604c-0,-3.775 0.704,-7.388 2.112,-10.846c1.408,-3.454 3.35,-6.513 5.821,-9.167c2.471,-2.658 5.408,-4.771 8.812,-6.341c3.4,-1.567 7.096,-2.355 11.084,-2.355c4.091,0 7.825,0.842 11.2,2.513c3.379,1.675 6.262,3.871 8.654,6.579c2.392,2.713 4.254,5.796 5.579,9.25c1.333,3.458 1.996,6.967 1.996,10.529c-0,3.771 -0.692,7.375 -2.071,10.8c-1.383,3.434 -3.3,6.463 -5.742,9.092c-2.445,2.633 -5.37,4.733 -8.77,6.3c-3.405,1.571 -7.1,2.354 -11.088,2.354" style="fill:#1a2e35;fill-rule:nonzero;"/><path d="M1760.38,941.284l13.796,0c1.008,0 1.95,-0.237 2.825,-0.716c0.879,-0.48 1.637,-1.13 2.275,-1.955c0.637,-0.82 1.145,-1.791 1.512,-2.908c0.375,-1.117 0.563,-2.317 0.563,-3.592c-0,-1.329 -0.217,-2.55 -0.638,-3.666c-0.429,-1.117 -0.996,-2.088 -1.717,-2.909c-0.716,-0.825 -1.541,-1.462 -2.47,-1.916c-0.934,-0.45 -1.875,-0.675 -2.834,-0.675l-13.312,-0l-0,18.337Zm-11.009,28.629l0,-56.616l25.042,-0c2.604,-0 5.008,0.546 7.217,1.633c2.204,1.092 4.104,2.525 5.7,4.304c1.596,1.784 2.841,3.804 3.746,6.063c0.904,2.262 1.354,4.533 1.354,6.816c-0,3.671 -0.913,7.005 -2.75,10.009c-1.829,3.004 -4.317,5.171 -7.454,6.5l12.92,21.291l-12.362,0l-11.558,-18.979l-10.846,0l-0,18.979l-11.009,0Z" style="fill:#1a2e35;fill-rule:nonzero;"/></g></svg>