<?xml version="1.0" encoding="UTF-8" standalone="no"?><!DOCTYPE svg PUBLIC "-//W3C//DTD SVG 1.1//EN" "http://www.w3.org/Graphics/SVG/1.1/DTD/svg11.dtd"><svg width="100%" height="100%" viewBox="0 0 367 805" version="1.1" xmlns="http://www.w3.org/2000/svg" xmlns:xlink="http://www.w3.org/1999/xlink" xml:space="preserve" xmlns:serif="http://www.serif.com/" style="fill-rule:evenodd;clip-rule:evenodd;stroke-linejoin:round;stroke-miterlimit:2;"><g><path d="M148.98,42.188l68.61,-0c3.29,-0 5.99,-2.069 5.99,-4.598l0,-32.991c0,-2.53 -2.7,-4.599 -5.99,-4.599l-68.61,-0c-3.29,-0 -5.98,2.069 -5.98,4.599l0,32.991c0,2.529 2.69,4.598 5.98,4.598Z" style="fill:#999;"/><path d="M177.88,22.602l-5.27,0l0,-18.003c0,-2.53 0.72,-4.599 1.59,-4.599l-13.07,0c-2.13,0 -3.86,2.069 -3.86,4.599l0,18.003l-4.24,0l0,-18.003c0,-2.53 2.02,-4.599 4.5,-4.599l21.15,0c-0.44,0 -0.8,2.069 -0.8,4.599l0,18.003Z" style="fill:#adadad;fill-rule:nonzero;"/><path d="M172.61,22.602l-5.3,0l0,-18.003c0,-2.53 1.07,-4.599 2.38,-4.599l-5.45,0c-1.83,0 -3.32,2.069 -3.32,4.599l0,18.003l-3.65,0l0,-18.003c0,-2.53 1.73,-4.599 3.86,-4.599l13.07,0c-0.87,0 -1.59,2.069 -1.59,4.599l0,18.003Z" style="fill:#bdbdbd;fill-rule:nonzero;"/><path d="M167.31,22.602l-6.39,0l0,-18.003c0,-2.53 1.49,-4.599 3.32,-4.599l5.45,0c-1.31,0 -2.38,2.069 -2.38,4.599l0,18.003Z" style="fill:#cacaca;fill-rule:nonzero;"/><path d="M209.88,22.602l-12.42,0l0,-18.003c0,-2.53 -0.95,-4.599 -2.11,-4.599l22.24,0c3.29,0 5.99,2.069 5.99,4.599c0,-2.53 -2.7,-4.599 -5.99,-4.599l-11.66,0c2.18,0 3.95,2.069 3.95,4.599l0,18.003Z" style="fill:#828282;fill-rule:nonzero;"/><path d="M218.47,22.602l-8.59,0l0,-18.003c0,-2.53 -1.77,-4.599 -3.95,-4.599l11.66,0c3.29,0 5.99,2.069 5.99,4.599c0,-2.53 -2.7,-4.599 -5.99,-4.599l-4.61,0c3.02,0 5.49,2.069 5.49,4.599l0,18.003Z" style="fill:#6f6f6f;fill-rule:nonzero;"/><path d="M223.58,22.602l-5.11,0l0,-18.003c0,-2.53 -2.47,-4.599 -5.49,-4.599l4.61,0c3.29,0 5.99,2.069 5.99,4.599l0,18.003Z" style="fill:#5e5e5e;fill-rule:nonzero;"/><path d="M20.52,39.49l325.53,-0c3.17,-0 5.76,-2.595 5.76,-5.767l0,-5.354c0,-3.173 -2.59,-5.767 -5.76,-5.767l-325.53,0c-3.17,0 -5.76,2.594 -5.76,5.767l0,5.354c0,3.172 2.59,5.767 5.76,5.767Z" style="fill:#999;"/><path d="M147.99,31.046l-29.98,0l0,-2.677c0,-3.173 5.04,-5.766 11.2,-5.766l-64.98,0c-6.16,0 -11.2,2.593 -11.2,5.766l0,2.677l-10.34,0l0,-2.677c0,-3.173 5.04,-5.766 11.2,-5.766l105.3,0c-6.16,0 -11.2,2.593 -11.2,5.766l-0,2.677Z" style="fill:#adadad;fill-rule:nonzero;"/><path d="M118.01,31.046l-21.82,0l0,-2.677c0,-3.173 5.04,-5.766 11.2,-5.766l-32.25,0c-6.16,0 -11.2,2.593 -11.2,5.766l0,2.677l-10.91,0l0,-2.677c0,-3.173 5.04,-5.766 11.2,-5.766l64.98,0c-6.16,0 -11.2,2.593 -11.2,5.766l0,2.677Z" style="fill:#bdbdbd;fill-rule:nonzero;"/><path d="M96.19,31.046l-32.25,0l0,-2.677c0,-3.173 5.04,-5.766 11.2,-5.766l32.25,0c-6.16,0 -11.2,2.593 -11.2,5.766l0,2.677Z" style="fill:#cacaca;fill-rule:nonzero;"/><path d="M293.05,31.046l-51.23,0l0,-2.677c0,-3.173 -5.04,-5.766 -11.2,-5.766l109.99,0c6.16,0 11.2,2.593 11.2,5.766c0,-3.173 -5.04,-5.766 -11.2,-5.766l-58.76,0c6.16,0 11.2,2.593 11.2,5.766l0,2.677Z" style="fill:#828282;fill-rule:nonzero;"/><path d="M334.32,31.046l-41.27,0l0,-2.677c0,-3.173 -5.04,-5.766 -11.2,-5.766l58.76,0c6.16,0 11.2,2.593 11.2,5.766c0,-3.173 -5.04,-5.766 -11.2,-5.766l-17.49,0c6.16,0 11.2,2.593 11.2,5.766l0,2.677Z" style="fill:#6f6f6f;fill-rule:nonzero;"/><path d="M351.81,31.046l-17.49,0l0,-2.677c0,-3.173 -5.04,-5.766 -11.2,-5.766l17.49,0c6.16,0 11.2,2.593 11.2,5.766l0,2.677Z" style="fill:#5e5e5e;fill-rule:nonzero;"/><path d="M20.52,676.236l325.53,0c3.17,0 5.76,-2.6 5.76,-5.77l0,-5.35c0,-3.18 -2.59,-5.77 -5.76,-5.77l-325.53,0c-3.17,0 -5.76,2.59 -5.76,5.77l0,5.35c0,3.17 2.59,5.77 5.76,5.77Z" style="fill:#999;"/><path d="M159.19,676.236l-29.98,0c-6.16,0 -11.2,-2.6 -11.2,-5.77l0,-2.68l29.98,0l-0,2.68c-0,3.17 5.04,5.77 11.2,5.77Zm-94.96,0l-10.34,0c-6.16,0 -11.2,-2.6 -11.2,-5.77l0,-2.68l10.34,0l0,2.68c0,3.17 5.04,5.77 11.2,5.77Z" style="fill:#adadad;fill-rule:nonzero;"/><path d="M129.21,676.236l-21.82,0c-6.16,0 -11.2,-2.6 -11.2,-5.77l0,-2.68l21.82,0l0,2.68c0,3.17 5.04,5.77 11.2,5.77Zm-54.07,0l-10.91,0c-6.16,0 -11.2,-2.6 -11.2,-5.77l0,-2.68l10.91,0l0,2.68c0,3.17 5.04,5.77 11.2,5.77Z" style="fill:#bdbdbd;fill-rule:nonzero;"/><path d="M107.39,676.236l-32.25,0c-6.16,0 -11.2,-2.6 -11.2,-5.77l0,-2.68l32.25,0l0,2.68c0,3.17 5.04,5.77 11.2,5.77Z" style="fill:#cacaca;fill-rule:nonzero;"/><path d="M281.85,676.236l-51.23,0c6.16,0 11.2,-2.6 11.2,-5.77l0,-2.68l51.23,0l0,2.68c0,3.17 -5.04,5.77 -11.2,5.77Z" style="fill:#828282;fill-rule:nonzero;"/><path d="M323.12,676.236l-41.27,0c6.16,0 11.2,-2.6 11.2,-5.77l0,-2.68l41.27,0l0,2.68c0,3.17 -5.04,5.77 -11.2,5.77Z" style="fill:#6f6f6f;fill-rule:nonzero;"/><path d="M340.61,676.236l-17.49,0c6.16,0 11.2,-2.6 11.2,-5.77l0,-2.68l17.49,0l0,2.68c0,3.17 -5.04,5.77 -11.2,5.77Z" style="fill:#5e5e5e;fill-rule:nonzero;"/><path d="M14.76,667.786l337.05,0c8.12,0 14.76,-6.64 14.76,-14.76l0,-607.22c0,-8.118 -6.64,-14.76 -14.76,-14.76l-337.05,0c-8.12,0 -14.76,6.642 -14.76,14.76l0,607.22c0,8.12 6.64,14.76 14.76,14.76Z" style="fill:#1c1c1c;"/><path d="M366.57,269.691l0,-223.885c0,-8.118 -6.64,-14.76 -14.76,-14.76l-337.05,0c-8.12,0 -14.76,6.642 -14.76,14.76l0,223.885l366.57,0Z" style="fill:#dea41b;"/><rect x="0" y="310.131" width="366.57" height="29.89" style="fill:#dea41b;"/><rect x="151.83" y="610.746" width="62.91" height="9.83" style="fill:#dea41b;"/><path d="M151.83,102.35l26.54,-0l-0,26.545l9.83,0l0,-26.545l26.54,-0l-0,-9.827l-26.54,0l0,-26.545l-9.83,0l-0,26.545l-26.54,0l0,9.827Z" style="fill:#1c1c1c;"/><rect x="112.69" y="340.021" width="19.7" height="327.765" style="fill:#282828;fill-rule:nonzero;"/><path d="M57.65,667.786l-8.64,0l0,-327.765l8.64,0l0,327.765Zm74.74,-357.655l-19.7,0l0,-40.44l19.7,0l0,40.44Zm-74.74,0l-8.64,0l0,-40.44l8.64,0l0,40.44Z" style="fill:#282828;fill-rule:nonzero;"/><path d="M132.39,269.691l-19.7,0l0,-238.645l-55.04,0l0,238.645l-8.64,0l0,-238.645l83.38,0l0,238.645Z" style="fill:#e0a927;fill-rule:nonzero;"/><path d="M132.39,340.021l-19.7,0l0,-29.89l19.7,0l0,29.89Zm-74.74,0l-8.64,0l0,-29.89l8.64,0l0,29.89Z" style="fill:#e0a927;fill-rule:nonzero;"/><path d="M112.69,667.786l-16.32,0l-0,-327.765l16.32,0l0,327.765Zm-45.75,0l-9.29,0l0,-327.765l9.29,0l0,327.765Zm45.75,-357.655l-16.32,0l-0,-40.44l16.32,0l0,40.44Zm-45.75,0l-9.29,0l0,-40.44l9.29,0l0,40.44Z" style="fill:#373737;fill-rule:nonzero;"/><path d="M112.69,269.691l-16.32,0l-0,-238.645l-29.43,0l0,238.645l-9.29,0l0,-238.645l55.04,0l0,238.645Z" style="fill:#e2af36;fill-rule:nonzero;"/><path d="M112.69,340.021l-16.32,0l-0,-29.89l16.32,0l0,29.89Zm-45.75,0l-9.29,0l0,-29.89l9.29,0l0,29.89Z" style="fill:#e2af36;fill-rule:nonzero;"/><path d="M96.37,667.786l-29.43,0l0,-327.765l29.43,0l-0,327.765Zm-0,-357.655l-29.43,0l0,-40.44l29.43,0l-0,40.44Z" style="fill:#4b4b4b;fill-rule:nonzero;"/><rect x="66.94" y="31.046" width="29.43" height="238.645" style="fill:#e5b74a;fill-rule:nonzero;"/><rect x="66.94" y="310.131" width="29.43" height="29.89" style="fill:#e5b74a;fill-rule:nonzero;"/><path d="M292.63,667.786l-44.15,0l0,-327.765l44.15,0l0,327.765Zm0,-357.655l-44.15,0l0,-40.44l44.15,0l0,40.44Z" style="fill:#191919;fill-rule:nonzero;"/><rect x="248.48" y="31.046" width="44.15" height="238.645" style="fill:#c79318;fill-rule:nonzero;"/><rect x="248.48" y="310.131" width="44.15" height="29.89" style="fill:#c79318;fill-rule:nonzero;"/><path d="M340.04,667.786l-47.41,0l0,-327.765l47.41,0l0,327.765Zm0,-357.655l-47.41,0l0,-40.44l47.41,0l0,40.44Z" style="fill:#161616;fill-rule:nonzero;"/><rect x="292.63" y="31.046" width="47.41" height="238.645" style="fill:#b38416;fill-rule:nonzero;"/><rect x="292.63" y="310.131" width="47.41" height="29.89" style="fill:#b38416;fill-rule:nonzero;"/><path d="M351.81,667.786l-11.77,0l0,-327.765l26.53,0l0,313.005c0,8.12 -6.64,14.76 -14.76,14.76Zm14.76,-357.655l-26.53,0l0,-40.44l26.53,0l0,40.44Z" style="fill:#141414;fill-rule:nonzero;"/><path d="M366.57,269.691l-26.53,0l0,-238.645l11.77,0c8.12,0 14.76,6.642 14.76,14.76l0,223.885Z" style="fill:#a17714;fill-rule:nonzero;"/><rect x="340.04" y="310.131" width="26.53" height="29.89" style="fill:#a17714;fill-rule:nonzero;"/><path d="M199.46,797.786c0,0.37 -0.01,0.69 -0.03,0.97c-0.02,0.27 -0.06,0.5 -0.12,0.71c-0.06,0.2 -0.13,0.39 -0.22,0.56c-0.1,0.15 -0.26,0.35 -0.48,0.57c-0.24,0.24 -0.72,0.59 -1.45,1.06c-0.74,0.47 -1.65,0.93 -2.75,1.37c-1.09,0.45 -2.34,0.83 -3.75,1.13c-1.42,0.32 -2.96,0.47 -4.64,0.47c-2.89,0 -5.51,-0.48 -7.83,-1.44c-2.33,-0.97 -4.33,-2.39 -5.96,-4.28c-1.64,-1.88 -2.91,-4.21 -3.8,-6.97c-0.88,-2.77 -1.32,-5.95 -1.32,-9.56c0,-3.7 0.48,-6.99 1.43,-9.89c0.95,-2.89 2.29,-5.35 4.02,-7.36c1.73,-2.01 3.78,-3.54 6.19,-4.59c2.4,-1.06 5.06,-1.59 7.98,-1.59c1.29,0 2.55,0.12 3.76,0.35c1.22,0.25 2.35,0.54 3.38,0.91c1.04,0.36 1.95,0.79 2.76,1.27c0.8,0.47 1.37,0.87 1.67,1.17c0.32,0.31 0.52,0.54 0.61,0.71c0.1,0.15 0.17,0.34 0.22,0.56c0.06,0.22 0.11,0.48 0.15,0.78c0.03,0.3 0.04,0.65 0.04,1.07c0,0.47 -0.02,0.85 -0.07,1.17c-0.04,0.33 -0.12,0.6 -0.21,0.82c-0.08,0.21 -0.2,0.38 -0.33,0.48c-0.12,0.11 -0.28,0.16 -0.46,0.16c-0.32,0 -0.77,-0.23 -1.36,-0.67c-0.57,-0.45 -1.31,-0.94 -2.23,-1.48c-0.92,-0.54 -2.02,-1.04 -3.33,-1.48c-1.31,-0.45 -2.87,-0.67 -4.7,-0.67c-1.99,0 -3.8,0.4 -5.42,1.18c-1.64,0.8 -3.03,1.97 -4.19,3.51c-1.15,1.53 -2.05,3.41 -2.69,5.63c-0.63,2.22 -0.95,4.76 -0.95,7.61c0,2.83 0.31,5.33 0.92,7.5c0.61,2.18 1.49,4 2.63,5.45c1.14,1.46 2.55,2.57 4.21,3.32c1.66,0.74 3.54,1.11 5.65,1.11c1.77,0 3.33,-0.22 4.66,-0.65c1.33,-0.44 2.46,-0.92 3.39,-1.46c0.93,-0.54 1.7,-1.02 2.3,-1.46c0.61,-0.43 1.08,-0.65 1.42,-0.65c0.16,0 0.3,0.03 0.42,0.1c0.12,0.07 0.2,0.2 0.27,0.39c0.07,0.2 0.13,0.47 0.17,0.81c0.03,0.34 0.04,0.78 0.04,1.3Z"/></g></svg>