<?xml version="1.0" encoding="UTF-8" standalone="no"?><!DOCTYPE svg PUBLIC "-//W3C//DTD SVG 1.1//EN" "http://www.w3.org/Graphics/SVG/1.1/DTD/svg11.dtd"><svg width="100%" height="100%" viewBox="0 0 24 36" version="1.1" xmlns="http://www.w3.org/2000/svg" xmlns:xlink="http://www.w3.org/1999/xlink" xml:space="preserve" xmlns:serif="http://www.serif.com/" style="fill-rule:evenodd;clip-rule:evenodd;stroke-linejoin:round;stroke-miterlimit:2;"><g><path d="M13.043,24.552c-3.703,0 -7.737,-0.797 -9.945,-2.072c-3.746,-2.162 -3.765,-5.658 -0.042,-7.807c1.854,-1.07 4.285,-1.605 6.722,-1.605c2.457,0 4.92,0.544 6.8,1.63c3.746,2.162 6.716,6.435 2.994,8.584c-1.529,0.883 -3.949,1.27 -6.529,1.27Z" style="fill:#c8d3cf;fill-rule:nonzero;"/><path d="M23.724,16.952l-19.125,-0l0,1.96l0.006,-0c-0.059,1.461 0.879,2.936 2.816,4.055c3.746,2.163 9.8,2.174 13.523,0.024c1.869,-1.078 2.794,-2.497 2.778,-3.916l0.002,0l-0,-2.123Z" style="fill:#6f8894;fill-rule:nonzero;"/><path d="M20.944,20.868c-3.723,2.149 -9.777,2.138 -13.523,-0.025c-3.746,-2.163 -3.764,-5.658 -0.042,-7.807c3.722,-2.149 9.777,-2.139 13.523,0.024c3.745,2.163 3.765,5.658 0.042,7.808Z" style="fill:#d2dbde;fill-rule:nonzero;"/><path d="M20.546,20.454c-3.571,2.061 -9.377,2.051 -12.969,-0.023c-3.593,-2.074 -3.611,-5.427 -0.041,-7.488c3.57,-2.062 9.377,-2.051 12.969,0.023c3.593,2.074 3.611,5.427 0.041,7.488Z" style="fill:#a8c7cc;fill-rule:nonzero;"/><path d="M10.333,14.481l-0.573,-0.331l-0.566,0.327l-0.39,-0.225l0.566,-0.327l-0.576,-0.333l0.389,-0.224l0.576,0.333l0.569,-0.329l0.39,0.225l-0.569,0.329l0.573,0.331l-0.389,0.224Z" style="fill:#6f8894;fill-rule:nonzero;"/><path d="M20.108,18.865l-2.012,1.161l-0.532,-0.307l2.012,-1.161l0.532,0.307Z" style="fill:#6f8894;fill-rule:nonzero;"/></g></svg>