<?xml version="1.0" encoding="UTF-8" standalone="no"?><!DOCTYPE svg PUBLIC "-//W3C//DTD SVG 1.1//EN" "http://www.w3.org/Graphics/SVG/1.1/DTD/svg11.dtd"><svg width="100%" height="100%" viewBox="0 0 184 802" version="1.1" xmlns="http://www.w3.org/2000/svg" xmlns:xlink="http://www.w3.org/1999/xlink" xml:space="preserve" xmlns:serif="http://www.serif.com/" style="fill-rule:evenodd;clip-rule:evenodd;stroke-linejoin:round;stroke-miterlimit:2;"><g><path d="M20.49,673.219l142.084,-0c3.17,-0 5.76,-2.6 5.76,-5.77l-0,-5.35c-0,-3.18 -2.59,-5.77 -5.76,-5.77l-142.084,-0c-3.172,-0 -5.766,2.59 -5.766,5.77l-0,5.35c-0,3.17 2.594,5.77 5.766,5.77Z" style="fill:#999;"/><path d="M80.553,673.219l-13.669,-0c-2.8,-0 -5.1,-2.6 -5.1,-5.77l0,-2.68l13.66,-0l-0,2.68c-0,3.17 2.3,5.77 5.109,5.77Zm-43.279,-0l-4.716,-0c-2.808,-0 -5.105,-2.6 -5.105,-5.77l0,-2.68l4.713,-0l0,2.68c0,3.17 2.298,5.77 5.108,5.77Z" style="fill:#adadad;fill-rule:nonzero;"/><path d="M66.884,673.219l-9.94,-0c-2.81,-0 -5.11,-2.6 -5.11,-5.77l-0,-2.68l9.95,-0l0,2.68c0,3.17 2.3,5.77 5.1,5.77Zm-24.64,-0l-4.97,-0c-2.81,-0 -5.108,-2.6 -5.108,-5.77l0,-2.68l4.968,-0l-0,2.68c-0,3.17 2.3,5.77 5.11,5.77Z" style="fill:#bdbdbd;fill-rule:nonzero;"/><path d="M56.944,673.219l-14.7,-0c-2.81,-0 -5.11,-2.6 -5.11,-5.77l-0,-2.68l14.7,-0l-0,2.68c-0,3.17 2.3,5.77 5.11,5.77Z" style="fill:#cacaca;fill-rule:nonzero;"/><path d="M136.454,673.219l-23.35,-0c2.81,-0 5.1,-2.6 5.1,-5.77l-0,-2.68l23.35,-0l-0,2.68c-0,3.17 -2.29,5.77 -5.1,5.77Z" style="fill:#828282;fill-rule:nonzero;"/><path d="M155.264,673.219l-18.81,-0c2.81,-0 5.1,-2.6 5.1,-5.77l-0,-2.68l18.81,-0l0,2.68c0,3.17 -2.29,5.77 -5.1,5.77Z" style="fill:#6f6f6f;fill-rule:nonzero;"/><path d="M163.234,673.219l-7.97,-0l7.31,-0c3.17,-0 5.76,-2.6 5.76,-5.77l-0,-2.68l-0,2.68c-0,3.17 -2.29,5.77 -5.1,5.77Z" style="fill:#9d9d9d;fill-rule:nonzero;"/><path d="M162.574,673.219l-7.31,-0c2.81,-0 5.1,-2.6 5.1,-5.77l0,-2.68l7.97,-0l-0,2.68c-0,3.17 -2.59,5.77 -5.76,5.77Z" style="fill:#5e5e5e;fill-rule:nonzero;"/><path d="M67.063,39.171l48.931,-0c2.35,-0 4.27,-1.92 4.27,-4.27l0,-30.631c0,-2.349 -1.92,-4.27 -4.27,-4.27l-48.931,0c-2.349,0 -4.27,1.921 -4.27,4.27l-0,30.631c-0,2.35 1.921,4.27 4.27,4.27Z" style="fill:#999;"/><path d="M87.674,19.585l-3.75,-0l-0,-15.315c-0,-2.349 0.5,-4.27 1.13,-4.27l-9.32,-0c-1.52,-0 -2.76,1.921 -2.76,4.27l-0,15.315l-3.02,-0l-0,-15.315c-0,-2.349 1.44,-4.27 3.209,-4.27l15.081,-0c-0.31,-0 -0.57,1.921 -0.57,4.27l-0,15.315Z" style="fill:#adadad;fill-rule:nonzero;"/><path d="M83.924,19.585l-3.78,-0l0,-15.315c0,-2.349 0.76,-4.27 1.69,-4.27l-3.88,-0c-1.31,-0 -2.37,1.921 -2.37,4.27l-0,15.315l-2.61,-0l-0,-15.315c-0,-2.349 1.24,-4.27 2.76,-4.27l9.32,-0c-0.63,-0 -1.13,1.921 -1.13,4.27l-0,15.315Z" style="fill:#bdbdbd;fill-rule:nonzero;"/><path d="M80.144,19.585l-4.56,-0l-0,-15.315c-0,-2.349 1.06,-4.27 2.37,-4.27l3.88,-0c-0.93,-0 -1.69,1.921 -1.69,4.27l0,15.315Z" style="fill:#cacaca;fill-rule:nonzero;"/><path d="M110.504,19.585l-8.86,-0l0,-15.315c0,-2.349 -0.68,-4.27 -1.51,-4.27l15.86,-0c2.35,-0 4.27,1.921 4.27,4.27c0,-2.349 -1.92,-4.27 -4.27,-4.27l-8.31,-0c1.55,-0 2.82,1.921 2.82,4.27l0,15.315Z" style="fill:#828282;fill-rule:nonzero;"/><path d="M116.624,19.585l-6.12,-0l0,-15.315c0,-2.349 -1.27,-4.27 -2.82,-4.27l8.31,-0c2.35,-0 4.27,1.921 4.27,4.27c0,-2.349 -1.92,-4.27 -4.27,-4.27l-3.28,-0c2.15,-0 3.91,1.921 3.91,4.27l0,15.315Z" style="fill:#6f6f6f;fill-rule:nonzero;"/><path d="M120.264,19.585l-3.64,-0l0,-15.315c0,-2.349 -1.76,-4.27 -3.91,-4.27l3.28,-0c2.35,-0 4.27,1.921 4.27,4.27l0,15.315Z" style="fill:#5e5e5e;fill-rule:nonzero;"/><path d="M20.49,36.473l142.084,-0c3.17,-0 5.76,-2.595 5.76,-5.767l-0,-5.354c-0,-3.173 -2.59,-5.767 -5.76,-5.767l-142.084,-0c-3.172,-0 -5.766,2.594 -5.766,5.767l-0,5.354c-0,3.172 2.594,5.767 5.766,5.767Z" style="fill:#999;"/><path d="M75.444,28.029l-13.66,-0l0,-2.677c0,-3.173 2.3,-5.766 5.1,-5.766l-29.61,-0c-2.81,-0 -5.108,2.593 -5.108,5.766l0,2.677l-4.713,-0l0,-2.677c0,-3.173 2.297,-5.766 5.105,-5.766l47.995,-0c-2.809,-0 -5.109,2.593 -5.109,5.766l-0,2.677Z" style="fill:#adadad;fill-rule:nonzero;"/><path d="M61.784,28.029l-9.95,-0l-0,-2.677c-0,-3.173 2.3,-5.766 5.11,-5.766l-14.7,-0c-2.81,-0 -5.11,2.593 -5.11,5.766l-0,2.677l-4.968,-0l0,-2.677c0,-3.173 2.298,-5.766 5.108,-5.766l29.61,-0c-2.8,-0 -5.1,2.593 -5.1,5.766l0,2.677Z" style="fill:#bdbdbd;fill-rule:nonzero;"/><path d="M51.834,28.029l-14.7,-0l-0,-2.677c-0,-3.173 2.3,-5.766 5.11,-5.766l14.7,-0c-2.81,-0 -5.11,2.593 -5.11,5.766l-0,2.677Z" style="fill:#cacaca;fill-rule:nonzero;"/><path d="M141.554,28.029l-23.35,-0l-0,-2.677c-0,-3.173 -2.29,-5.766 -5.1,-5.766l49.6,-0l-26.25,-0c2.81,-0 5.1,2.593 5.1,5.766l-0,2.677Z" style="fill:#828282;fill-rule:nonzero;"/><path d="M160.364,28.029l-18.81,-0l-0,-2.677c-0,-3.173 -2.29,-5.766 -5.1,-5.766l26.25,-0l-7.44,-0c2.81,-0 5.1,2.593 5.1,5.766l0,2.677Z" style="fill:#6f6f6f;fill-rule:nonzero;"/><path d="M168.334,25.352c-0,-3.13 -2.52,-5.697 -5.63,-5.766l0.53,-0c2.81,-0 5.1,2.593 5.1,5.766Z" style="fill:#9d9d9d;fill-rule:nonzero;"/><path d="M168.334,28.029l-7.97,-0l0,-2.677c0,-3.173 -2.29,-5.766 -5.1,-5.766l7.44,-0c3.11,0.069 5.63,2.636 5.63,5.766l-0,2.677Z" style="fill:#5e5e5e;fill-rule:nonzero;"/><path d="M14.724,28.029l153.61,-0c8.1,-0 14.73,6.625 14.73,14.725l-0,607.295c-0,8.1 -6.63,14.72 -14.73,14.72l-153.61,-0c-8.099,-0 -14.724,-6.62 -14.724,-14.72l0,-607.295c0,-8.1 6.625,-14.725 14.724,-14.725Z" style="fill:#1c1c1c;"/><path d="M14.724,28.029l153.61,-0c8.1,-0 14.73,6.625 14.73,14.725l-0,223.92l-183.064,-0l0,-223.92c0,-8.1 6.625,-14.725 14.724,-14.725Z" style="fill:#dea41b;"/><rect x="0" y="307.114" width="183.064" height="29.89" style="fill:#dea41b;"/><rect x="60.074" y="607.729" width="62.92" height="9.83" style="fill:#dea41b;"/><path d="M60.074,99.333l26.54,-0l0,26.545l9.83,-0l-0,-26.545l26.55,-0l0,-9.827l-26.55,-0l-0,-26.545l-9.83,-0l0,26.545l-26.54,-0l-0,9.827Z" style="fill:#1c1c1c;"/><path d="M75.764,664.769l-15.55,-0l-0,-47.21l15.55,-0l0,47.21Zm-50.718,-0l-5.549,-0l0,-327.765l5.549,-0l0,327.765Zm50.718,-57.04l-15.55,-0l-0,-270.725l15.55,-0l0,270.725Zm0,-300.615l-15.55,-0l-0,-40.44l15.55,-0l0,40.44Zm-50.718,-0l-5.549,-0l0,-40.44l5.549,-0l0,40.44Z" style="fill:#282828;fill-rule:nonzero;"/><path d="M75.764,266.674l-15.55,-0l-0,-167.341l15.55,-0l0,167.341Zm-50.718,-0l-5.549,-0l0,-238.645l56.267,-0l0,61.477l-15.55,-0l-0,-61.477l-35.168,-0l0,238.645Z" style="fill:#e0a927;fill-rule:nonzero;"/><path d="M75.764,337.004l-15.55,-0l-0,-29.89l15.55,-0l0,29.89Zm-50.718,-0l-5.549,-0l0,-29.89l5.549,-0l0,29.89Z" style="fill:#e0a927;fill-rule:nonzero;"/><rect x="60.214" y="607.729" width="15.55" height="9.83" style="fill:#e0a927;fill-rule:nonzero;"/><rect x="60.214" y="89.506" width="15.55" height="9.827" style="fill:#282828;fill-rule:nonzero;"/><path d="M60.214,664.769l-12.17,-0l0,-327.765l12.17,-0l-0,270.725l-0.14,-0l-0,9.83l0.14,-0l-0,47.21Zm-29.432,-0l-5.736,-0l0,-327.765l5.736,-0l-0,327.765Zm29.432,-357.655l-12.17,-0l0,-40.44l12.17,-0l-0,40.44Zm-29.432,-0l-5.736,-0l0,-40.44l5.736,-0l-0,40.44Z" style="fill:#373737;fill-rule:nonzero;"/><path d="M60.214,266.674l-12.17,-0l0,-238.645l-17.262,-0l-0,238.645l-5.736,-0l0,-238.645l35.168,-0l-0,61.477l-0.14,-0l-0,9.827l0.14,-0l-0,167.341Z" style="fill:#e2af36;fill-rule:nonzero;"/><path d="M60.214,337.004l-12.17,-0l0,-29.89l12.17,-0l-0,29.89Zm-29.432,-0l-5.736,-0l0,-29.89l5.736,-0l-0,29.89Z" style="fill:#e2af36;fill-rule:nonzero;"/><rect x="60.074" y="607.729" width="0.14" height="9.83" style="fill:#e2af36;fill-rule:nonzero;"/><rect x="60.074" y="89.506" width="0.14" height="9.827" style="fill:#373737;fill-rule:nonzero;"/><path d="M48.044,664.769l-17.262,-0l-0,-327.765l17.262,-0l0,327.765Zm0,-357.655l-17.262,-0l-0,-40.44l17.262,-0l0,40.44Z" style="fill:#4b4b4b;fill-rule:nonzero;"/><rect x="30.782" y="28.029" width="17.262" height="238.645" style="fill:#e5b74a;fill-rule:nonzero;"/><rect x="30.782" y="307.114" width="17.262" height="29.89" style="fill:#e5b74a;fill-rule:nonzero;"/><path d="M135.934,664.769l-24.44,-0l0,-47.21l11.5,-0l0,-9.83l-11.5,-0l0,-270.725l24.44,-0l-0,327.765Zm-0,-357.655l-24.44,-0l0,-40.44l24.44,-0l-0,40.44Z" style="fill:#191919;fill-rule:nonzero;"/><path d="M135.934,266.674l-24.44,-0l0,-167.341l11.5,-0l0,-9.827l-11.5,-0l0,-61.477l56.84,-0c8.1,-0 14.73,6.625 14.73,14.725c-0,-8.1 -6.63,-14.725 -14.73,-14.725l-32.4,-0l-0,238.645Z" style="fill:#c79318;fill-rule:nonzero;"/><rect x="111.494" y="307.114" width="24.44" height="29.89" style="fill:#c79318;fill-rule:nonzero;"/><rect x="111.494" y="607.729" width="11.5" height="9.83" style="fill:#c79318;fill-rule:nonzero;"/><rect x="111.494" y="89.506" width="11.5" height="9.827" style="fill:#191919;fill-rule:nonzero;"/><path d="M165.264,664.769l-29.33,-0l-0,-327.765l29.33,-0l0,327.765Zm0,-357.655l-29.33,-0l-0,-40.44l29.33,-0l0,40.44Z" style="fill:#161616;fill-rule:nonzero;"/><path d="M165.264,266.674l-29.33,-0l-0,-238.645l32.4,-0c8.1,-0 14.73,6.625 14.73,14.725c-0,-8.1 -6.63,-14.725 -14.73,-14.725l-3.07,-0l0,238.645Z" style="fill:#b38416;fill-rule:nonzero;"/><rect x="135.934" y="307.114" width="29.33" height="29.89" style="fill:#b38416;fill-rule:nonzero;"/><path d="M168.334,664.769l-3.07,-0l0,-327.765l17.8,-0l-0,313.045c-0,8.1 -6.63,14.72 -14.73,14.72Zm14.73,-357.655l-17.8,-0l0,-40.44l17.8,-0l-0,40.44Z" style="fill:#141414;fill-rule:nonzero;"/><path d="M183.064,266.674l-17.8,-0l0,-238.645l3.07,-0c8.1,-0 14.73,6.625 14.73,14.725l-0,223.92Z" style="fill:#a17714;fill-rule:nonzero;"/><rect x="165.264" y="307.114" width="17.8" height="29.89" style="fill:#a17714;fill-rule:nonzero;"/><path d="M113.014,762.419l-0.04,-0l-7.67,22.2l15.48,-0l-7.77,-22.2Zm19.17,36.54c0.18,0.5 0.28,0.9 0.29,1.22c0.01,0.3 -0.08,0.54 -0.26,0.7c-0.18,0.16 -0.49,0.26 -0.91,0.31c-0.42,0.05 -0.99,0.07 -1.71,0.07c-0.7,-0 -1.28,-0.01 -1.7,-0.05c-0.42,-0.03 -0.74,-0.09 -0.96,-0.17c-0.23,-0.09 -0.38,-0.19 -0.48,-0.33c-0.11,-0.14 -0.2,-0.31 -0.3,-0.52l-3.82,-10.85l-18.51,-0l-3.66,10.71c-0.07,0.21 -0.15,0.39 -0.27,0.54c-0.11,0.15 -0.28,0.27 -0.5,0.37c-0.21,0.11 -0.53,0.18 -0.93,0.23c-0.4,0.05 -0.92,0.07 -1.56,0.07c-0.67,-0 -1.21,-0.02 -1.64,-0.08c-0.42,-0.06 -0.73,-0.17 -0.89,-0.33c-0.18,-0.17 -0.26,-0.4 -0.25,-0.71c0.02,-0.31 0.11,-0.71 0.3,-1.22l14.93,-41.39c0.1,-0.26 0.22,-0.47 0.37,-0.62c0.15,-0.17 0.36,-0.3 0.65,-0.38c0.28,-0.09 0.65,-0.16 1.11,-0.2c0.44,-0.04 1.01,-0.05 1.7,-0.05c0.73,-0 1.34,0.01 1.82,0.05c0.48,0.04 0.87,0.11 1.17,0.2c0.3,0.08 0.52,0.22 0.69,0.39c0.16,0.17 0.29,0.39 0.37,0.63l14.95,41.41Zm-62.72,-36.54l-0.031,-0l-7.669,22.2l15.48,-0l-7.78,-22.2Zm19.18,36.54c0.17,0.5 0.28,0.9 0.29,1.22c0.01,0.3 -0.08,0.54 -0.26,0.7c-0.19,0.16 -0.49,0.26 -0.91,0.31c-0.43,0.05 -0.99,0.07 -1.71,0.07c-0.7,-0 -1.28,-0.01 -1.7,-0.05c-0.42,-0.03 -0.74,-0.09 -0.96,-0.17c-0.23,-0.09 -0.38,-0.19 -0.49,-0.33c-0.1,-0.14 -0.2,-0.31 -0.29,-0.52l-3.821,-10.85l-18.509,-0l-3.66,10.71c-0.07,0.21 -0.15,0.39 -0.27,0.54c-0.12,0.15 -0.28,0.27 -0.5,0.37c-0.22,0.11 -0.53,0.18 -0.93,0.23c-0.4,0.05 -0.92,0.07 -1.56,0.07c-0.67,-0 -1.22,-0.02 -1.64,-0.08c-0.42,-0.06 -0.73,-0.17 -0.89,-0.33c-0.18,-0.17 -0.26,-0.4 -0.25,-0.71c0.01,-0.31 0.11,-0.71 0.3,-1.22l14.929,-41.39c0.091,-0.26 0.221,-0.47 0.36,-0.62c0.161,-0.17 0.37,-0.3 0.661,-0.38c0.28,-0.09 0.65,-0.16 1.11,-0.2c0.44,-0.04 1.01,-0.05 1.7,-0.05c0.73,-0 1.34,0.01 1.82,0.05c0.48,0.04 0.87,0.11 1.16,0.2c0.309,0.08 0.53,0.22 0.7,0.39c0.16,0.17 0.29,0.39 0.37,0.63l14.95,41.41Z"/></g></svg>