<?xml version="1.0" encoding="UTF-8" standalone="no"?><!DOCTYPE svg PUBLIC "-//W3C//DTD SVG 1.1//EN" "http://www.w3.org/Graphics/SVG/1.1/DTD/svg11.dtd"><svg width="100%" height="100%" viewBox="0 0 432 924" version="1.1" xmlns="http://www.w3.org/2000/svg" xmlns:xlink="http://www.w3.org/1999/xlink" xml:space="preserve" xmlns:serif="http://www.serif.com/" style="fill-rule:evenodd;clip-rule:evenodd;stroke-linejoin:round;stroke-miterlimit:2;"><g><path d="M175.32,49.646l80.729,-0c3.881,-0 7.051,-2.435 7.051,-5.413l-0,-38.822c-0,-2.977 -3.17,-5.411 -7.051,-5.411l-80.729,-0c-3.87,-0 -7.04,2.434 -7.04,5.411l0,38.822c0,2.978 3.17,5.413 7.04,5.413Z" style="fill:#999;"/><path d="M209.32,26.597l-6.19,0l0,-21.186c0,-2.977 0.84,-5.411 1.86,-5.411l-15.37,-0c-2.5,-0 -4.55,2.434 -4.55,5.411l-0,21.186l-4.99,0l-0,-21.186c-0,-2.977 2.38,-5.411 5.3,-5.411l24.89,-0c-0.52,-0 -0.95,2.434 -0.95,5.411l-0,21.186Z" style="fill:#adadad;fill-rule:nonzero;"/><path d="M203.13,26.597l-6.24,0l0,-21.186c0,-2.977 1.26,-5.411 2.8,-5.411l-6.41,-0c-2.15,-0 -3.91,2.434 -3.91,5.411l-0,21.186l-4.3,0l-0,-21.186c-0,-2.977 2.05,-5.411 4.55,-5.411l15.37,-0c-1.02,-0 -1.86,2.434 -1.86,5.411l0,21.186Z" style="fill:#bdbdbd;fill-rule:nonzero;"/><path d="M196.89,26.597l-7.52,0l-0,-21.186c-0,-2.977 1.76,-5.411 3.91,-5.411l6.41,-0c-1.54,-0 -2.8,2.434 -2.8,5.411l0,21.186Z" style="fill:#cacaca;fill-rule:nonzero;"/><path d="M246.99,26.597l-14.62,0l-0,-21.186c-0,-2.977 -1.12,-5.411 -2.48,-5.411l26.159,-0c3.881,-0 7.051,2.434 7.051,5.411c-0,-2.977 -3.17,-5.411 -7.051,-5.411l-13.719,-0c2.56,-0 4.66,2.434 4.66,5.411l0,21.186Z" style="fill:#828282;fill-rule:nonzero;"/><path d="M257.09,26.597l-10.1,0l0,-21.186c0,-2.977 -2.1,-5.411 -4.66,-5.411l13.719,-0c3.881,-0 7.051,2.434 7.051,5.411c-0,-2.977 -3.17,-5.411 -7.051,-5.411l-5.419,-0c3.56,-0 6.46,2.434 6.46,5.411l-0,21.186Z" style="fill:#6f6f6f;fill-rule:nonzero;"/><path d="M263.1,26.597l-6.01,0l-0,-21.186c-0,-2.977 -2.9,-5.411 -6.46,-5.411l5.419,-0c3.881,-0 7.051,2.434 7.051,5.411l-0,21.186Z" style="fill:#5e5e5e;fill-rule:nonzero;"/><path d="M24.16,46.47l383.06,-0c3.73,-0 6.78,-3.054 6.78,-6.785l-0,-6.302c-0,-3.732 -3.05,-6.786 -6.78,-6.786l-383.06,0c-3.74,0 -6.79,3.054 -6.79,6.786l-0,6.302c-0,3.731 3.05,6.785 6.79,6.785Z" style="fill:#999;"/><path d="M174.16,36.534l-35.28,0l0,-3.151c0,-3.732 5.93,-6.786 13.18,-6.786l-76.47,0c-7.25,0 -13.18,3.054 -13.18,6.786l0,3.151l-12.17,0l-0,-3.151c-0,-3.732 5.93,-6.786 13.18,-6.786l123.92,0c-7.25,0 -13.18,3.054 -13.18,6.786l0,3.151Z" style="fill:#adadad;fill-rule:nonzero;"/><path d="M138.88,36.534l-25.68,0l-0,-3.151c-0,-3.732 5.93,-6.786 13.18,-6.786l-37.95,0c-7.26,0 -13.19,3.054 -13.19,6.786l-0,3.151l-12.83,0l0,-3.151c0,-3.732 5.93,-6.786 13.18,-6.786l76.47,0c-7.25,0 -13.18,3.054 -13.18,6.786l0,3.151Z" style="fill:#bdbdbd;fill-rule:nonzero;"/><path d="M113.2,36.534l-37.96,0l-0,-3.151c-0,-3.732 5.93,-6.786 13.19,-6.786l37.95,0c-7.25,0 -13.18,3.054 -13.18,6.786l-0,3.151Z" style="fill:#cacaca;fill-rule:nonzero;"/><path d="M344.85,36.534l-60.28,0l-0,-3.151c-0,-3.732 -5.93,-6.786 -13.18,-6.786l129.43,0c7.25,0 13.18,3.054 13.18,6.786c-0,-3.732 -5.93,-6.786 -13.18,-6.786l-69.15,0c7.25,0 13.18,3.054 13.18,6.786l-0,3.151Z" style="fill:#828282;fill-rule:nonzero;"/><path d="M393.42,36.534l-48.57,0l-0,-3.151c-0,-3.732 -5.93,-6.786 -13.18,-6.786l69.15,0c7.25,0 13.18,3.054 13.18,6.786c-0,-3.732 -5.93,-6.786 -13.18,-6.786l-20.58,0c7.25,0 13.18,3.054 13.18,6.786l0,3.151Z" style="fill:#6f6f6f;fill-rule:nonzero;"/><path d="M414,36.534l-20.58,0l0,-3.151c0,-3.732 -5.93,-6.786 -13.18,-6.786l20.58,0c7.25,0 13.18,3.054 13.18,6.786l-0,3.151Z" style="fill:#5e5e5e;fill-rule:nonzero;"/><path d="M24.16,795.762l383.06,0c3.73,0 6.78,-3.06 6.78,-6.79l-0,-6.3c-0,-3.73 -3.05,-6.79 -6.78,-6.79l-383.06,0c-3.74,0 -6.79,3.06 -6.79,6.79l-0,6.3c-0,3.73 3.05,6.79 6.79,6.79Z" style="fill:#999;"/><path d="M187.34,795.762l-35.28,0c-7.25,0 -13.18,-3.06 -13.18,-6.79l0,-3.15l35.28,0l0,3.15c0,3.73 5.93,6.79 13.18,6.79Zm-111.75,0l-12.17,0c-7.25,0 -13.18,-3.06 -13.18,-6.79l-0,-3.15l12.17,0l0,3.15c0,3.73 5.93,6.79 13.18,6.79Z" style="fill:#adadad;fill-rule:nonzero;"/><path d="M152.06,795.762l-25.68,0c-7.25,0 -13.18,-3.06 -13.18,-6.79l-0,-3.15l25.68,0l0,3.15c0,3.73 5.93,6.79 13.18,6.79Zm-63.63,0l-12.84,0c-7.25,0 -13.18,-3.06 -13.18,-6.79l0,-3.15l12.83,0l-0,3.15c-0,3.73 5.93,6.79 13.19,6.79Z" style="fill:#bdbdbd;fill-rule:nonzero;"/><path d="M126.38,795.762l-37.95,0c-7.26,0 -13.19,-3.06 -13.19,-6.79l-0,-3.15l37.96,0l-0,3.15c-0,3.73 5.93,6.79 13.18,6.79Z" style="fill:#cacaca;fill-rule:nonzero;"/><path d="M331.67,795.762l-60.28,0c7.25,0 13.18,-3.06 13.18,-6.79l-0,-3.15l60.28,0l-0,3.15c-0,3.73 -5.93,6.79 -13.18,6.79Z" style="fill:#828282;fill-rule:nonzero;"/><path d="M380.24,795.762l-48.57,0c7.25,0 13.18,-3.06 13.18,-6.79l-0,-3.15l48.57,0l0,3.15c0,3.73 -5.93,6.79 -13.18,6.79Z" style="fill:#6f6f6f;fill-rule:nonzero;"/><path d="M400.82,795.762l-20.58,0c7.25,0 13.18,-3.06 13.18,-6.79l0,-3.15l20.58,0l-0,3.15c-0,3.73 -5.93,6.79 -13.18,6.79Z" style="fill:#5e5e5e;fill-rule:nonzero;"/><path d="M17.37,785.822l396.63,0c9.56,0 17.37,-7.82 17.37,-17.37l-0,-714.55c-0,-9.552 -7.81,-17.368 -17.37,-17.368l-396.63,0c-9.55,0 -17.37,7.816 -17.37,17.368l-0,714.55c-0,9.55 7.82,17.37 17.37,17.37Z" style="fill:#1c1c1c;"/><path d="M431.37,317.36l-0,-263.458c-0,-9.552 -7.81,-17.368 -17.37,-17.368l-396.63,0c-9.55,0 -17.37,7.816 -17.37,17.368l-0,263.458l431.37,0Z" style="fill:#dea41b;"/><rect x="0" y="364.948" width="431.37" height="35.173" style="fill:#dea41b;"/><rect x="177.53" y="727.662" width="76.31" height="11.92" style="fill:#dea41b;"/><path d="M177.53,122.97l32.2,-0l-0,32.195l11.92,0l0,-32.195l32.19,-0l-0,-11.919l-32.19,0l0,-32.195l-11.92,0l-0,32.195l-32.2,0l0,11.919Z" style="fill:#1c1c1c;"/><rect x="132.61" y="400.121" width="23.19" height="385.701" style="fill:#282828;fill-rule:nonzero;"/><path d="M67.84,785.822l-10.17,0l0,-385.701l10.17,0l-0,385.701Zm87.96,-420.874l-23.19,0l-0,-47.588l23.19,0l0,47.588Zm-87.96,0l-10.17,0l0,-47.588l10.17,0l-0,47.588Z" style="fill:#282828;fill-rule:nonzero;"/><path d="M155.8,317.36l-23.19,0l-0,-280.826l-64.77,0l-0,280.826l-10.17,0l0,-280.826l98.13,0l0,280.826Z" style="fill:#e0a927;fill-rule:nonzero;"/><path d="M155.8,400.121l-23.19,0l-0,-35.173l23.19,0l0,35.173Zm-87.96,0l-10.17,0l0,-35.173l10.17,0l-0,35.173Z" style="fill:#e0a927;fill-rule:nonzero;"/><path d="M132.61,785.822l-19.2,0l0,-385.701l19.2,0l-0,385.701Zm-53.83,0l-10.94,0l-0,-385.701l10.94,0l0,385.701Zm53.83,-420.874l-19.2,0l0,-47.588l19.2,0l-0,47.588Zm-53.83,0l-10.94,0l-0,-47.588l10.94,0l0,47.588Z" style="fill:#373737;fill-rule:nonzero;"/><path d="M132.61,317.36l-19.2,0l0,-280.826l-34.63,0l0,280.826l-10.94,0l-0,-280.826l64.77,0l-0,280.826Z" style="fill:#e2af36;fill-rule:nonzero;"/><path d="M132.61,400.121l-19.2,0l0,-35.173l19.2,0l-0,35.173Zm-53.83,0l-10.94,0l-0,-35.173l10.94,0l0,35.173Z" style="fill:#e2af36;fill-rule:nonzero;"/><path d="M113.41,785.822l-34.63,0l0,-385.701l34.63,0l0,385.701Zm0,-420.874l-34.63,0l0,-47.588l34.63,0l0,47.588Z" style="fill:#4b4b4b;fill-rule:nonzero;"/><rect x="78.78" y="36.534" width="34.63" height="280.826" style="fill:#e5b74a;fill-rule:nonzero;"/><rect x="78.78" y="364.948" width="34.63" height="35.173" style="fill:#e5b74a;fill-rule:nonzero;"/><path d="M344.35,785.822l-51.94,0l0,-385.701l51.94,0l-0,385.701Zm-0,-420.874l-51.94,0l0,-47.588l51.94,0l-0,47.588Z" style="fill:#191919;fill-rule:nonzero;"/><rect x="292.41" y="36.534" width="51.94" height="280.826" style="fill:#c79318;fill-rule:nonzero;"/><rect x="292.41" y="364.948" width="51.94" height="35.173" style="fill:#c79318;fill-rule:nonzero;"/><path d="M400.15,785.822l-55.8,0l-0,-385.701l55.8,0l0,385.701Zm0,-420.874l-55.8,0l-0,-47.588l55.8,0l0,47.588Z" style="fill:#161616;fill-rule:nonzero;"/><rect x="344.35" y="36.534" width="55.8" height="280.826" style="fill:#b38416;fill-rule:nonzero;"/><rect x="344.35" y="364.948" width="55.8" height="35.173" style="fill:#b38416;fill-rule:nonzero;"/><path d="M414,785.822l-13.85,0l0,-385.701l31.22,0l-0,368.331c-0,9.55 -7.81,17.37 -17.37,17.37Zm17.37,-420.874l-31.22,0l0,-47.588l31.22,0l-0,47.588Z" style="fill:#141414;fill-rule:nonzero;"/><path d="M431.37,317.36l-31.22,0l0,-280.826l13.85,0c9.56,0 17.37,7.816 17.37,17.368l-0,263.458Z" style="fill:#a17714;fill-rule:nonzero;"/><rect x="400.15" y="364.948" width="31.22" height="35.173" style="fill:#a17714;fill-rule:nonzero;"/><path d="M226.61,900.912c-0,-2.41 -0.29,-4.65 -0.89,-6.73c-0.6,-2.08 -1.54,-3.88 -2.81,-5.39c-1.28,-1.52 -2.89,-2.69 -4.85,-3.55c-1.95,-0.85 -4.46,-1.27 -7.54,-1.27l-6.04,0l-0,34.68l6.1,0c2.85,0 5.25,-0.35 7.21,-1.07c1.95,-0.7 3.58,-1.79 4.89,-3.26c1.31,-1.47 2.3,-3.32 2.95,-5.54c0.65,-2.21 0.98,-4.84 0.98,-7.87Zm6.21,-0.26c-0,3.86 -0.5,7.23 -1.48,10.11c-0.99,2.89 -2.43,5.27 -4.33,7.16c-1.89,1.9 -4.22,3.32 -6.96,4.26c-2.76,0.94 -6.04,1.41 -9.85,1.41l-9.43,0c-0.53,0 -1.04,-0.18 -1.51,-0.53c-0.47,-0.37 -0.7,-0.99 -0.7,-1.88l-0,-39.74c-0,-0.89 0.23,-1.51 0.7,-1.88c0.47,-0.35 0.98,-0.52 1.51,-0.52l10.08,0c3.86,0 7.12,0.49 9.78,1.49c2.66,1 4.89,2.44 6.7,4.31c1.8,1.87 3.16,4.13 4.09,6.8c0.93,2.66 1.4,5.66 1.4,9.01Z"/></g></svg>