<?xml version="1.0" encoding="UTF-8" standalone="no"?><!DOCTYPE svg PUBLIC "-//W3C//DTD SVG 1.1//EN" "http://www.w3.org/Graphics/SVG/1.1/DTD/svg11.dtd"><svg width="100%" height="100%" viewBox="0 0 127 722" version="1.1" xmlns="http://www.w3.org/2000/svg" xmlns:xlink="http://www.w3.org/1999/xlink" xml:space="preserve" xmlns:serif="http://www.serif.com/" style="fill-rule:evenodd;clip-rule:evenodd;stroke-linejoin:round;stroke-miterlimit:2;"><g><g><path d="M15.299,591.613l96.343,0c2.799,0 5.088,-2.29 5.088,-5.09l-0,-4.72c-0,-2.8 -2.289,-5.09 -5.088,-5.09l-96.343,0c-2.799,0 -5.088,2.29 -5.088,5.09l-0,4.72c-0,2.8 2.289,5.09 5.088,5.09Z" style="fill:#999;"/><path d="M55.857,591.613l-9.474,0c-1.947,0 -3.54,-2.29 -3.54,-5.09l0,-2.36l9.474,0l0,2.36c0,2.8 1.593,5.09 3.54,5.09Zm-30.012,0l-3.268,0c-1.947,0 -3.539,-2.29 -3.539,-5.09l0,-2.36l3.267,0l-0,2.36c-0,2.8 1.593,5.09 3.54,5.09Z" style="fill:#adadad;fill-rule:nonzero;"/><path d="M46.383,591.613l-6.896,0c-1.948,0 -3.54,-2.29 -3.54,-5.09l0,-2.36l6.896,0l0,2.36c0,2.8 1.593,5.09 3.54,5.09Zm-17.089,0l-3.449,0c-1.947,0 -3.54,-2.29 -3.54,-5.09l-0,-2.36l3.448,0l-0,2.36c-0,2.8 1.593,5.09 3.541,5.09Z" style="fill:#bdbdbd;fill-rule:nonzero;"/><path d="M39.487,591.613l-10.193,0c-1.948,0 -3.541,-2.29 -3.541,-5.09l-0,-2.36l10.194,0l0,2.36c0,2.8 1.592,5.09 3.54,5.09Z" style="fill:#cacaca;fill-rule:nonzero;"/><path d="M94.619,591.613l-16.19,0c1.947,0 3.54,-2.29 3.54,-5.09l-0,-2.36l16.19,0l-0,2.36c-0,2.8 -1.592,5.09 -3.54,5.09Z" style="fill:#828282;fill-rule:nonzero;"/><path d="M107.662,591.613l-13.043,0c1.948,0 3.54,-2.29 3.54,-5.09l-0,-2.36l13.042,0l-0,2.36c-0,2.8 -1.592,5.09 -3.539,5.09Z" style="fill:#6f6f6f;fill-rule:nonzero;"/><path d="M113.19,591.613l-5.528,0l3.98,0c2.799,0 5.087,-2.29 5.088,-5.09c-0.001,2.8 -1.593,5.09 -3.54,5.09Z" style="fill:#9d9d9d;fill-rule:nonzero;"/><path d="M111.642,591.613l-3.98,0c1.947,0 3.539,-2.29 3.539,-5.09l-0,-2.36l5.529,0l-0,2.36c-0.001,2.8 -2.289,5.09 -5.088,5.09Z" style="fill:#5e5e5e;fill-rule:nonzero;"/><path d="M45.185,32.177l36.57,0c1.756,0 3.192,-1.579 3.192,-3.508l0,-25.161c0,-1.93 -1.436,-3.508 -3.192,-3.508l-36.57,0c-1.755,0 -3.191,1.578 -3.191,3.508l0,25.161c0,1.929 1.436,3.508 3.191,3.508Z" style="fill:#999;"/><path d="M60.589,14.896l-2.807,-0l-0,-11.388c-0,-1.93 0.379,-3.508 0.845,-3.508l-6.965,-0c-1.134,-0 -2.062,1.578 -2.062,3.508l0,11.388l-2.257,-0l0,-11.388c0,-1.93 1.078,-3.508 2.398,-3.508l11.276,-0c-0.235,-0 -0.428,1.578 -0.428,3.508l-0,11.388Z" style="fill:#adadad;fill-rule:nonzero;"/><path d="M57.782,14.896l-2.825,-0l0,-11.388c0,-1.93 0.569,-3.508 1.266,-3.508l-2.903,-0c-0.975,-0 -1.772,1.578 -1.772,3.508l0,11.388l-1.948,-0l0,-11.388c0,-1.93 0.928,-3.508 2.062,-3.508l6.965,-0c-0.466,-0 -0.845,1.578 -0.845,3.508l-0,11.388Z" style="fill:#bdbdbd;fill-rule:nonzero;"/><path d="M54.957,14.896l-3.409,-0l0,-11.388c0,-1.93 0.797,-3.508 1.772,-3.508l2.903,-0c-0.697,-0 -1.266,1.578 -1.266,3.508l0,11.388Z" style="fill:#cacaca;fill-rule:nonzero;"/><path d="M77.65,14.896l-6.623,-0l0,-11.388c0,-1.93 -0.506,-3.508 -1.124,-3.508l11.852,-0c1.756,-0 3.192,1.578 3.192,3.508c0,-1.93 -1.436,-3.508 -3.192,-3.508l-6.214,-0c1.161,-0 2.109,1.578 2.109,3.508l0,11.388Z" style="fill:#828282;fill-rule:nonzero;"/><path d="M82.226,14.896l-4.576,-0l0,-11.388c0,-1.93 -0.948,-3.508 -2.109,-3.508l6.214,-0c1.756,-0 3.192,1.578 3.192,3.508c0,-1.93 -1.436,-3.508 -3.192,-3.508l-2.454,-0c1.61,-0 2.925,1.578 2.925,3.508l0,11.388Z" style="fill:#6f6f6f;fill-rule:nonzero;"/><path d="M84.947,14.896l-2.721,-0l0,-11.388c0,-1.93 -1.315,-3.508 -2.925,-3.508l2.454,-0c1.756,-0 3.192,1.578 3.192,3.508l0,11.388Z" style="fill:#5e5e5e;fill-rule:nonzero;"/><path d="M15.299,29.795l96.343,0c2.799,0 5.088,-2.289 5.088,-5.087l-0,-4.725c-0,-2.798 -2.289,-5.087 -5.088,-5.087l-96.343,-0c-2.799,-0 -5.088,2.289 -5.088,5.087l-0,4.725c-0,2.798 2.289,5.087 5.088,5.087Z" style="fill:#999;"/><path d="M52.317,22.345l-9.474,0l0,-2.361c0,-2.799 1.593,-5.088 3.54,-5.088l-20.538,-0c-1.947,-0 -3.54,2.289 -3.54,5.088l-0,2.361l-3.267,0l0,-2.361c0,-2.799 1.592,-5.088 3.539,-5.088l33.28,-0c-1.947,-0 -3.54,2.289 -3.54,5.088l0,2.361Z" style="fill:#adadad;fill-rule:nonzero;"/><path d="M42.843,22.345l-6.896,0l0,-2.361c0,-2.799 1.592,-5.088 3.54,-5.088l-10.193,-0c-1.948,-0 -3.541,2.289 -3.541,5.088l-0,2.361l-3.448,0l-0,-2.361c-0,-2.799 1.593,-5.088 3.54,-5.088l20.538,-0c-1.947,-0 -3.54,2.289 -3.54,5.088l0,2.361Z" style="fill:#bdbdbd;fill-rule:nonzero;"/><path d="M35.947,22.345l-10.194,0l-0,-2.361c-0,-2.799 1.593,-5.088 3.541,-5.088l10.193,-0c-1.948,-0 -3.54,2.289 -3.54,5.088l0,2.361Z" style="fill:#cacaca;fill-rule:nonzero;"/><path d="M98.159,22.345l-16.19,0l-0,-2.361c-0,-2.799 -1.593,-5.088 -3.54,-5.088l33.213,-0l-17.023,-0c1.948,-0 3.54,2.289 3.54,5.088l-0,2.361Z" style="fill:#828282;fill-rule:nonzero;"/><path d="M111.201,22.345l-13.042,0l-0,-2.361c-0,-2.799 -1.592,-5.088 -3.54,-5.088l17.023,-0l-3.98,-0c1.947,-0 3.539,2.289 3.539,5.088l-0,2.361Z" style="fill:#6f6f6f;fill-rule:nonzero;"/><path d="M116.73,19.981c-0.001,-2.797 -2.289,-5.085 -5.088,-5.085l1.548,-0c1.947,-0 3.539,2.287 3.54,5.085Z" style="fill:#9d9d9d;fill-rule:nonzero;"/><path d="M116.73,22.345l-5.529,0l-0,-2.361c-0,-2.799 -1.592,-5.088 -3.539,-5.088l3.98,-0c2.799,-0 5.087,2.288 5.088,5.085l-0,2.364Z" style="fill:#5e5e5e;fill-rule:nonzero;"/><path d="M10.211,22.345l106.519,0c5.616,0 10.211,5.846 10.211,12.992l0,535.836c0,7.14 -4.595,12.99 -10.211,12.99l-106.519,0c-5.616,0 -10.211,-5.85 -10.211,-12.99l0,-535.836c0,-7.146 4.595,-12.992 10.211,-12.992Z" style="fill:#1c1c1c;"/><path d="M10.211,22.345l106.519,0c5.616,0 10.211,5.846 10.211,12.992l0,197.571l-126.941,0l0,-197.571c0,-7.146 4.595,-12.992 10.211,-12.992Z" style="fill:#dea41b;"/><rect x="0" y="268.59" width="126.941" height="26.373" style="fill:#dea41b;"/><rect x="36.162" y="534.943" width="54.308" height="8.48" style="fill:#dea41b;"/><path d="M36.162,96.102l22.912,0l0,22.913l8.483,0l0,-22.913l22.913,0l0,-8.483l-22.913,0l0,-22.913l-8.483,0l0,22.913l-22.912,0l-0,8.483Z" style="fill:#1c1c1c;"/><path d="M52.536,584.163l-10.784,0l0,-40.74l10.784,0l0,40.74Zm-35.168,0l-3.847,0l-0,-289.2l3.847,0l-0,289.2Zm35.168,-49.22l-10.784,0l0,-239.98l10.784,0l0,239.98Zm0,-266.353l-10.784,0l0,-35.682l10.784,0l0,35.682Zm-35.168,0l-3.847,0l-0,-35.682l3.847,0l-0,35.682Z" style="fill:#282828;fill-rule:nonzero;"/><path d="M52.536,232.908l-10.784,0l0,-136.806l10.784,0l0,136.806Zm-35.168,0l-3.847,0l-0,-210.563l39.015,0l0,65.274l-10.784,0l0,-65.274l-24.384,0l-0,210.563Z" style="fill:#e0a927;fill-rule:nonzero;"/><path d="M52.536,294.963l-10.784,0l0,-26.373l10.784,0l0,26.373Zm-35.168,0l-3.847,0l-0,-26.373l3.847,0l-0,26.373Z" style="fill:#e0a927;fill-rule:nonzero;"/><rect x="41.752" y="534.943" width="10.784" height="8.48" style="fill:#e0a927;fill-rule:nonzero;"/><rect x="41.752" y="87.619" width="10.784" height="8.483" style="fill:#282828;fill-rule:nonzero;"/><path d="M41.752,584.163l-8.435,0l0,-289.2l8.435,0l0,239.98l-5.59,0l-0,8.48l5.59,0l0,40.74Zm-20.406,0l-3.978,0l-0,-289.2l3.978,0l0,289.2Zm20.406,-315.573l-8.435,0l0,-35.682l8.435,0l0,35.682Zm-20.406,0l-3.978,0l-0,-35.682l3.978,0l0,35.682Z" style="fill:#373737;fill-rule:nonzero;"/><path d="M41.752,232.908l-8.435,0l0,-210.563l-11.971,0l0,210.563l-3.978,0l-0,-210.563l24.384,0l0,65.274l-5.59,0l-0,8.483l5.59,0l0,136.806Z" style="fill:#e2af36;fill-rule:nonzero;"/><path d="M41.752,294.963l-8.435,0l0,-26.373l8.435,0l0,26.373Zm-20.406,0l-3.978,0l-0,-26.373l3.978,0l0,26.373Z" style="fill:#e2af36;fill-rule:nonzero;"/><rect x="36.162" y="534.943" width="5.59" height="8.48" style="fill:#e2af36;fill-rule:nonzero;"/><rect x="36.162" y="87.619" width="5.59" height="8.483" style="fill:#373737;fill-rule:nonzero;"/><path d="M33.317,584.163l-11.971,0l0,-289.2l11.971,0l0,289.2Zm0,-315.573l-11.971,0l0,-35.682l11.971,0l0,35.682Z" style="fill:#4b4b4b;fill-rule:nonzero;"/><rect x="21.346" y="22.345" width="11.971" height="210.563" style="fill:#e5b74a;fill-rule:nonzero;"/><rect x="21.346" y="268.59" width="11.971" height="26.373" style="fill:#e5b74a;fill-rule:nonzero;"/><path d="M94.26,584.163l-16.949,0l0,-40.74l13.159,0l0,-8.48l-13.159,0l0,-239.98l16.949,0l0,289.2Zm0,-315.573l-16.949,0l0,-35.682l16.949,0l0,35.682Z" style="fill:#191919;fill-rule:nonzero;"/><path d="M94.26,232.908l-16.949,0l0,-136.806l13.159,0l0,-8.483l-13.159,0l0,-65.274l39.419,0c5.616,0 10.211,5.846 10.211,12.992c0,-7.146 -4.595,-12.992 -10.211,-12.992l-22.47,0l0,210.563Z" style="fill:#c79318;fill-rule:nonzero;"/><rect x="77.311" y="268.59" width="16.949" height="26.373" style="fill:#c79318;fill-rule:nonzero;"/><rect x="77.311" y="534.943" width="13.159" height="8.48" style="fill:#c79318;fill-rule:nonzero;"/><rect x="77.311" y="87.619" width="13.159" height="8.483" style="fill:#191919;fill-rule:nonzero;"/><path d="M114.599,584.163l-20.339,0l0,-289.2l20.339,0l-0,289.2Zm-0,-315.573l-20.339,0l0,-35.682l20.339,0l-0,35.682Z" style="fill:#161616;fill-rule:nonzero;"/><path d="M114.599,232.908l-20.339,0l0,-210.563l22.47,0c5.616,0 10.211,5.846 10.211,12.992c0,-7.146 -4.595,-12.992 -10.211,-12.992l-2.131,0l-0,210.563Z" style="fill:#b38416;fill-rule:nonzero;"/><rect x="94.26" y="268.59" width="20.339" height="26.373" style="fill:#b38416;fill-rule:nonzero;"/><path d="M116.73,584.163l-2.131,0l-0,-289.2l12.342,0l0,276.21c0,7.14 -4.595,12.99 -10.211,12.99Zm10.211,-315.573l-12.342,0l-0,-35.682l12.342,0l0,35.682Z" style="fill:#141414;fill-rule:nonzero;"/><path d="M126.941,232.908l-12.342,0l-0,-210.563l2.131,0c5.616,0 10.211,5.846 10.211,12.992l0,197.571Z" style="fill:#a17714;fill-rule:nonzero;"/><rect x="114.599" y="268.59" width="12.342" height="26.373" style="fill:#a17714;fill-rule:nonzero;"/><path d="M106.718,682.633l-0.034,0l-7.673,22.2l15.486,0l-7.779,-22.2Zm19.175,36.54c0.176,0.5 0.282,0.9 0.294,1.22c0.012,0.3 -0.082,0.54 -0.259,0.7c-0.188,0.16 -0.493,0.26 -0.916,0.31c-0.423,0.05 -0.987,0.07 -1.704,0.07c-0.704,0 -1.28,-0.01 -1.703,-0.05c-0.423,-0.03 -0.74,-0.09 -0.964,-0.17c-0.222,-0.09 -0.376,-0.19 -0.482,-0.33c-0.105,-0.14 -0.199,-0.31 -0.293,-0.52l-3.819,-10.85l-18.516,0l-3.654,10.71c-0.07,0.21 -0.153,0.39 -0.27,0.54c-0.118,0.15 -0.282,0.27 -0.505,0.37c-0.212,0.11 -0.529,0.18 -0.929,0.23c-0.399,0.05 -0.916,0.07 -1.562,0.07c-0.67,0 -1.211,-0.02 -1.633,-0.08c-0.423,-0.06 -0.728,-0.17 -0.893,-0.33c-0.176,-0.17 -0.259,-0.4 -0.247,-0.71c0.012,-0.31 0.106,-0.71 0.294,-1.22l14.933,-41.39c0.094,-0.26 0.223,-0.47 0.364,-0.62c0.153,-0.17 0.365,-0.3 0.658,-0.38c0.282,-0.09 0.646,-0.16 1.104,-0.2c0.447,-0.04 1.011,-0.05 1.704,-0.05c0.729,0 1.339,0.01 1.821,0.05c0.482,0.04 0.87,0.11 1.163,0.2c0.306,0.08 0.529,0.22 0.694,0.39c0.164,0.17 0.293,0.39 0.375,0.63l14.945,41.41Zm-62.716,-36.54l-0.035,0l-7.672,22.2l15.485,0l-7.778,-22.2Zm19.174,36.54c0.176,0.5 0.282,0.9 0.294,1.22c0.012,0.3 -0.082,0.54 -0.259,0.7c-0.188,0.16 -0.493,0.26 -0.916,0.31c-0.423,0.05 -0.987,0.07 -1.703,0.07c-0.705,0 -1.281,-0.01 -1.704,-0.05c-0.423,-0.03 -0.74,-0.09 -0.963,-0.17c-0.223,-0.09 -0.376,-0.19 -0.482,-0.33c-0.106,-0.14 -0.2,-0.31 -0.294,-0.52l-3.818,-10.85l-18.517,0l-3.653,10.71c-0.071,0.21 -0.153,0.39 -0.271,0.54c-0.118,0.15 -0.282,0.27 -0.505,0.37c-0.212,0.11 -0.529,0.18 -0.929,0.23c-0.399,0.05 -0.916,0.07 -1.562,0.07c-0.67,0 -1.21,-0.02 -1.633,-0.08c-0.423,-0.06 -0.729,-0.17 -0.893,-0.33c-0.176,-0.17 -0.259,-0.4 -0.247,-0.71c0.012,-0.31 0.106,-0.71 0.294,-1.22l14.933,-41.39c0.094,-0.26 0.223,-0.47 0.364,-0.62c0.153,-0.17 0.365,-0.3 0.658,-0.38c0.282,-0.09 0.646,-0.16 1.105,-0.2c0.446,-0.04 1.01,-0.05 1.703,-0.05c0.728,0 1.339,0.01 1.821,0.05c0.482,0.04 0.87,0.11 1.163,0.2c0.306,0.08 0.529,0.22 0.693,0.39c0.165,0.17 0.294,0.39 0.377,0.63l14.944,41.41Zm-62.716,-36.54l-0.035,0l-7.673,22.2l15.486,0l-7.778,-22.2Zm19.174,36.54c0.176,0.5 0.282,0.9 0.294,1.22c0.012,0.3 -0.082,0.54 -0.258,0.7c-0.189,0.16 -0.494,0.26 -0.917,0.31c-0.423,0.05 -0.987,0.07 -1.704,0.07c-0.704,0 -1.28,-0.01 -1.703,-0.05c-0.423,-0.03 -0.74,-0.09 -0.963,-0.17c-0.223,-0.09 -0.376,-0.19 -0.482,-0.33c-0.106,-0.14 -0.2,-0.31 -0.294,-0.52l-3.819,-10.85l-18.516,0l-3.653,10.71c-0.071,0.21 -0.153,0.39 -0.271,0.54c-0.117,0.15 -0.282,0.27 -0.505,0.37c-0.212,0.11 -0.529,0.18 -0.928,0.23c-0.4,0.05 -0.917,0.07 -1.563,0.07c-0.67,0 -1.21,-0.02 -1.633,-0.08c-0.423,-0.06 -0.728,-0.17 -0.892,-0.33c-0.177,-0.17 -0.259,-0.4 -0.248,-0.71c0.012,-0.31 0.106,-0.71 0.294,-1.22l14.933,-41.39c0.094,-0.26 0.224,-0.47 0.364,-0.62c0.153,-0.17 0.365,-0.3 0.658,-0.38c0.282,-0.09 0.646,-0.16 1.104,-0.2c0.447,-0.04 1.011,-0.05 1.704,-0.05c0.729,0 1.339,0.01 1.821,0.05c0.482,0.04 0.87,0.11 1.163,0.2c0.306,0.08 0.529,0.22 0.694,0.39c0.164,0.17 0.293,0.39 0.376,0.63l14.944,41.41Z"/></g></g></svg>